<svg id="Layer_1" xmlns="http://www.w3.org/2000/svg" viewBox="0 0 17 25"><style>.st0{stroke:url(#SVGID_1_)}.st0,.st1,.st2{fill:none;stroke-width:8;stroke-linecap:round;stroke-linejoin:round;stroke-miterlimit:10}.st1{stroke:#fff}.st2{stroke:url(#SVGID_2_)}.st3{fill:url(#SVGID_3_)}</style><linearGradient id="SVGID_1_" gradientUnits="userSpaceOnUse" x1="1.89" y1="10.342" x2="1.89" y2="10.342"><stop offset="0" stop-color="#fdc805"/><stop offset=".705" stop-color="#efae03"/><stop offset=".913" stop-color="#e29301"/></linearGradient><linearGradient id="SVGID_2_" gradientUnits="userSpaceOnUse" x1="10.48" y1="9.961" x2="10.48" y2="9.961"><stop offset="0" stop-color="#fdc805"/><stop offset=".705" stop-color="#efae03"/><stop offset=".913" stop-color="#e29301"/></linearGradient><linearGradient id="SVGID_3_" gradientUnits="userSpaceOnUse" y1="12.5" x2="17" y2="12.5"><stop offset="0" stop-color="#fdc805"/><stop offset=".705" stop-color="#efae03"/><stop offset=".913" stop-color="#e29301"/></linearGradient><path class="st3" d="M16.7 16c-.5-.5-1.3-.6-1.8-.1l-5 4.6v-19C9.9.8 9.3.2 8.6.2S7.2.8 7.2 1.5v19l-5-4.6c-.5-.5-1.4-.5-1.8.1-.5.5-.5 1.4.1 1.8l7.2 6.6c.2.2.6.3.9.3s.6-.1.9-.3l7.2-6.6c.4-.4.4-1.3 0-1.8z"/></svg>