<svg id="Layer_1" xmlns="http://www.w3.org/2000/svg" viewBox="0 0 100 100"><style>.st0{fill:url(#SVGID_1_)}.st1{fill:url(#SVGID_2_)}.st2{fill:url(#SVGID_3_)}.st3{fill:url(#SVGID_4_)}</style><linearGradient id="SVGID_1_" gradientUnits="userSpaceOnUse" x1="3.846" y1="129.016" x2="86.624" y2="129.016" gradientTransform="translate(0 -62.189)"><stop offset="0" stop-color="#fdc805"/><stop offset=".705" stop-color="#efae03"/><stop offset=".913" stop-color="#e29301"/></linearGradient><path class="st0" d="M34.2 49.8c3.7 3.3 7.3 6.3 11 9.6 3.7-3.1 7.3-6.3 11-9.6 10.2 11.3 20.2 22.7 30.4 34H3.9C14 72.5 24 61.2 34.2 49.8z"/><linearGradient id="SVGID_2_" gradientUnits="userSpaceOnUse" x1="4.325" y1="96.227" x2="86.056" y2="96.227" gradientTransform="translate(0 -62.189)"><stop offset="0" stop-color="#fdc805"/><stop offset=".705" stop-color="#efae03"/><stop offset=".913" stop-color="#e29301"/></linearGradient><path class="st1" d="M45.2 51.9C31.5 40 18.1 28.1 4.2 16.2h81.7C72.5 28.1 58.8 40 45.2 51.9z"/><linearGradient id="SVGID_3_" gradientUnits="userSpaceOnUse" x1="60.385" y1="111.9" x2="90.385" y2="111.9" gradientTransform="translate(0 -62.189)"><stop offset="0" stop-color="#fdc805"/><stop offset=".705" stop-color="#efae03"/><stop offset=".913" stop-color="#e29301"/></linearGradient><path class="st2" d="M90.4 79.6c-10-11.2-20-22.3-30-33.7 10-8.7 20-17.3 30-26.2v59.9z"/><linearGradient id="SVGID_4_" gradientUnits="userSpaceOnUse" y1="111.9" x2="30" y2="111.9" gradientTransform="translate(0 -62.189)"><stop offset="0" stop-color="#fdc805"/><stop offset=".705" stop-color="#efae03"/><stop offset=".913" stop-color="#e29301"/></linearGradient><path class="st3" d="M30 46.2C20 57.3 10 68.5 0 79.6V19.8c10 8.9 20 17.5 30 26.4z"/></svg>