<svg id="Layer_1" xmlns="http://www.w3.org/2000/svg" xmlns:xlink="http://www.w3.org/1999/xlink" viewBox="0 0 100 100"><style>.st0{fill:#fff}.st1{clip-path:url(#SVGID_2_);fill:url(#SVGID_3_)}</style><path class="st0" d="M34.7 62.4l-9.9 2.8s1.1-6.5 9-9c-.6-8.2.8-16.5 2.3-22.2.3-1.3.7-2.4 1-3.6-2.5 1.5-5.8 3-9.9 4.1-7.3 2-13.1 1.4-15.5 1-3.5-.6-5.3-1.4-5.1 1.3.1 2.3.7 5.9 2 10.7 2.7 10.3 11.7 30.2 28.8 25.6.4-.1.9-.3 1.3-.4-1.9-3.1-3.2-6.6-4-10.3M15.2 47.6l12.1-3.2s-.3 4.7-4.9 5.9c-4.5 1.2-7.2-2.7-7.2-2.7"/><defs><path id="SVGID_1_" d="M56 68.8c-10.6-3.1-12.3-11.6-12.3-11.6l28.5 7.9c0 .1-3.8 4.5-10.9 4.5-1.6 0-3.4-.2-5.3-.8m10.3-17.3s3.5-5.6 9.3-3.9c5.8 1.8 6.3 8.5 6.3 8.5l-15.6-4.6zm-25.1-7.4s3.6-5.6 9.7-3.9c6.1 1.8 6.6 8.5 6.6 8.5l-16.3-4.6zM41 20.4c-1.4 2.8-3.1 7.3-4.8 13.6-3.7 13.6-6.4 42.4 16.2 48.4S87 62.2 90.7 48.5c1.7-6.3 2.4-11.1 2.6-14.1.3-3.5-2.1-2.5-6.7-1.7-3.3.5-11 1.3-20.5-1.3-9.6-2.6-15.9-7.1-18.4-9.2-2.3-1.9-3.8-3.5-4.9-3.5-.8.1-1.3.6-1.8 1.7"/></defs><clipPath id="SVGID_2_"><use xlink:href="#SVGID_1_" overflow="visible"/></clipPath><linearGradient id="SVGID_3_" gradientUnits="userSpaceOnUse" x1="-547.25" y1="468.77" x2="-546.508" y2="468.77" gradientTransform="matrix(80.4252 0 0 -80.4252 44046.336 37754.543)"><stop offset="0" stop-color="#fdc805"/><stop offset=".705" stop-color="#efae03"/><stop offset=".913" stop-color="#e29301"/><stop offset="1" stop-color="#e29301"/></linearGradient><path class="st1" d="M29.8 18.8h63.8v69.6H29.8z"/></svg>