<?xml version="1.0" encoding="utf-8"?>
<!-- Generator: Adobe Illustrator 21.1.0, SVG Export Plug-In . SVG Version: 6.00 Build 0)  -->
<svg version="1.1" id="Layer_1" xmlns="http://www.w3.org/2000/svg" xmlns:xlink="http://www.w3.org/1999/xlink" x="0px" y="0px"
	 viewBox="0 0 100 100" style="enable-background:new 0 0 100 100;" xml:space="preserve">
<style type="text/css">
	.st0{fill:#FFFFFF;}
	.st1{fill:none;}
</style>
<g>
	<path class="st0" d="M39.3,67.7v-6.6l-18.3,5.1c0,0,1.3-7.8,10.8-10.5c2.9-0.8,5.4-0.8,7.4-0.4v-27h9.1c-1-3-1.9-5.5-2.7-7.1
		C44.4,18.5,43,20.3,40,23c-2.2,1.8-7.7,5.8-16.1,8C15.5,33.2,8.8,32.6,6,32.1c-4-0.7-6.1-1.6-5.8,1.5c0.2,2.7,0.8,6.8,2.3,12.3
		c3.1,11.9,13.5,34.7,33.2,29.4c5.1-1.4,8.8-4.1,11.3-7.6H39.3z M9.9,46.1l14-3.7c0,0-0.4,5.4-5.6,6.8C13,50.5,9.9,46.1,9.9,46.1
		L9.9,46.1z M9.9,46.1"/>
	<path d="M92.1,28.9c-3.7,0.6-12.6,1.5-23.6-1.5c-11-3-18.3-8.1-21.2-10.5c-4.1-3.4-5.9-5.8-7.6-2.2c-1.6,3.2-3.6,8.3-5.5,15.6
		C29.9,46,26.8,79.1,52.7,86c26.1,6.9,39.9-23.2,44.1-38.9c2-7.3,2.8-12.7,3-16.2C100.2,26.8,97.4,28,92.1,28.9L92.1,28.9z
		 M39.9,41.9c0,0,4.1-6.5,11.2-4.4c7,2,7.6,9.8,7.6,9.8L39.9,41.9z M56.9,70.4c-12.2-3.6-14.1-13.3-14.1-13.3l32.8,9.1
		C75.6,66.3,69,73.9,56.9,70.4L56.9,70.4z M68.7,50.5c0,0,4-6.4,10.7-4.4c6.7,2,7.3,9.8,7.3,9.8L68.7,50.5z M68.7,50.5"/>
	<rect y="12.7" class="st1" width="100" height="74.5"/>
</g>
</svg>
