<?xml version="1.0" encoding="utf-8"?>
<!-- Generator: Adobe Illustrator 21.1.0, SVG Export Plug-In . SVG Version: 6.00 Build 0)  -->
<svg version="1.1" id="Layer_1" xmlns="http://www.w3.org/2000/svg" xmlns:xlink="http://www.w3.org/1999/xlink" x="0px" y="0px"
	 viewBox="0 0 100 100" style="enable-background:new 0 0 100 100;" xml:space="preserve">
<style type="text/css">
	.st0{fill:#FFFFFF;}
	.st1{fill:url(#SVGID_1_);}
</style>
<g>
	<path class="st0" d="M98.4,97.2c-8.4,0-15.2-6.8-15.2-15.2v-9.8c0-0.9,0.7-1.6,1.6-1.6c0.9,0,1.6,0.7,1.6,1.6v9.8
		c0,6.7,5.4,12.1,12.1,12.1c0.9,0,1.6,0.7,1.6,1.6C100,96.5,99.3,97.2,98.4,97.2z"/>
	<circle cx="51.8" cy="49" r="41.2"/>
	<circle class="st0" cx="51.8" cy="49" r="26.7"/>
	<linearGradient id="SVGID_1_" gradientUnits="userSpaceOnUse" x1="5.1156" y1="49.023" x2="98.4445" y2="49.023">
		<stop  offset="0" style="stop-color:#EDBC46"/>
		<stop  offset="0.1204" style="stop-color:#F8DA76"/>
		<stop  offset="0.2097" style="stop-color:#FFED95"/>
		<stop  offset="0.4462" style="stop-color:#FFCC07"/>
		<stop  offset="0.7312" style="stop-color:#F6BA21"/>
		<stop  offset="1" style="stop-color:#EDBC46"/>
	</linearGradient>
	<path class="st1" d="M51.8,2.4C26,2.4,5.1,23.3,5.1,49S26,95.7,51.8,95.7S98.4,74.8,98.4,49S77.6,2.4,51.8,2.4z M14.9,37.1
		c2.1-6.4,8.9-9.9,15.3-7.8c6.4,2.1,9.9,8.9,7.8,15.3c-2.1,6.4-8.9,9.9-15.3,7.8C16.4,50.3,12.9,43.4,14.9,37.1z M46,77.7
		C42,83.1,34.4,84.3,29,80.4c-5.4-3.9-6.6-11.5-2.7-16.9c3.9-5.4,11.5-6.6,16.9-2.7S49.9,72.3,46,77.7z M39.6,22.4
		c0-6.7,5.4-12.1,12.1-12.1s12.1,5.4,12.1,12.1s-5.4,12.1-12.1,12.1S39.6,29.1,39.6,22.4z M74.5,80.4c-5.4,3.9-13,2.7-16.9-2.7
		s-2.7-13,2.7-16.9c5.4-3.9,13-2.7,16.9,2.7C81.2,68.8,80,76.4,74.5,80.4z M80.8,52.3c-6.4,2.1-13.2-1.4-15.3-7.8
		c-2.1-6.4,1.4-13.2,7.8-15.3c6.4-2.1,13.2,1.4,15.3,7.8C90.7,43.4,87.2,50.3,80.8,52.3z"/>
	<circle cx="51.8" cy="49" r="6.5"/>
	<circle cx="24.1" cy="73.6" r="23.5"/>
	<path class="st0" d="M38,93.1c0,0-7-1.7-7.8-4.7s0-6.2,0-6.2l2.8-4c0,0-1.3-1.6-0.4-1.1c0.9,0.5,2-2.5,2-2.5l-1.2-2.3l0.5-4.3
		l-1.2-6.8l-2.9-2.8l-2.4,0.9l-3.3-2l-7.6,2.7l-3.3,3.9l1,7.4l-1.4,2.5l2.6,3.3l2.6,4.6l-0.4,5.9l-2.4,3.6l-5,1.9
		c0,0,8.2,5.5,14.6,4.4C31.3,96.4,38,93.1,38,93.1z"/>
	<g>
		<path class="st0" d="M24.1,97.6C10.8,97.6,0,86.9,0,73.6c0-13.3,10.8-24.1,24.1-24.1c13.3,0,24.1,10.8,24.1,24.1
			C48.1,86.9,37.3,97.6,24.1,97.6L24.1,97.6z M24.1,51C11.6,51,1.5,61.1,1.5,73.6c0,12.5,10.1,22.6,22.6,22.6
			c12.5,0,22.6-10.1,22.6-22.6C46.7,61.1,36.5,51,24.1,51L24.1,51z M24.1,51"/>
		<path class="st0" d="M24.1,97.6c-5,0-9.8-1.5-13.9-4.5c-0.2-0.2-0.3-0.4-0.3-0.7c0-0.3,0.2-0.5,0.5-0.6c6-2.2,7-4.1,7-7.5
			c0-0.9-0.2-1.2-0.6-1.8c-0.5-0.7-1.2-1.7-1.6-4.3c-0.1-0.4-0.1-0.4-0.5-0.6c-0.9-0.4-1.7-1-1.9-3.8c0-1.4,0.5-2.1,0.9-2.5
			c-0.1-0.5-0.2-1.3-0.4-2.2c-0.7-4-0.7-9,5-11.3c5-2,8.9-0.9,10.2,0.4c0.9,0,3.1,0.3,4.7,2.1c2.4,2.8,1.7,9.3,1.4,11
			c0.4,0.4,0.9,1.1,0.9,2.4c-0.2,2.8-1,3.5-1.9,3.9c-0.3,0.2-0.4,0.2-0.5,0.6c-0.5,2.6-1.1,3.6-1.6,4.3c-0.4,0.5-0.6,0.8-0.6,1.8
			c0,3.5,1,5.3,7,7.5c0.3,0.1,0.4,0.3,0.5,0.6c0,0.3-0.1,0.5-0.3,0.7C33.9,96.1,29.1,97.6,24.1,97.6L24.1,97.6z M12.1,92.8
			c3.6,2.2,7.7,3.4,11.9,3.4c4.2,0,8.3-1.2,11.9-3.4c-5.1-2.1-6.7-4.2-6.7-8.4c0-1.4,0.4-2,0.8-2.6c0.4-0.6,1-1.5,1.4-3.7
			c0.2-1.1,0.8-1.4,1.3-1.6c0.5-0.2,0.9-0.4,1.1-2.6c0-1.1-0.5-1.4-0.5-1.4c-0.3-0.1-0.4-0.5-0.4-0.8c0.4-1.9,1-8-1-10.3
			c-1.3-1.5-3.4-1.6-3.8-1.6c-0.1,0-0.1,0-0.2,0c-0.2,0-0.5-0.2-0.6-0.4c-0.4-0.7-3.8-2-8.6-0.1c-4.7,1.9-4.7,6-4.1,9.7
			c0.2,1.4,0.4,2.6,0.4,2.6c0.1,0.3-0.1,0.7-0.4,0.8c0,0-0.5,0.3-0.5,1.5c0.2,2.1,0.6,2.4,1.1,2.6c0.4,0.2,1.1,0.5,1.3,1.6
			c0.4,2.3,1,3.1,1.4,3.7c0.4,0.6,0.8,1.2,0.8,2.6C18.8,88.6,17.2,90.7,12.1,92.8L12.1,92.8z M12.1,92.8"/>
	</g>
</g>
</svg>
