<svg id="Layer_1" xmlns="http://www.w3.org/2000/svg" xmlns:xlink="http://www.w3.org/1999/xlink" viewBox="0 0 100 100"><style>.st0{clip-path:url(#SVGID_2_);fill:url(#SVGID_3_)}.st1{fill:#fff}</style><defs><path id="SVGID_1_" d="M54.9 68.9c-2.7-3.7-1.9-8.9 1.8-11.6 3.7-2.7 8.9-1.9 11.6 1.8 2.7 3.7 1.9 8.9-1.8 11.6a8.2 8.2 0 0 1-4.9 1.6c-2.5 0-5-1.2-6.7-3.4m5.5-22.7c-1.4-4.4 1-9 5.3-10.5 4.4-1.4 9 1 10.5 5.3 1.4 4.4-1 9-5.3 10.5-.9.3-1.8.5-2.6.5-3.5 0-6.8-2.3-7.9-5.8M42.7 31.1c0-4.6 3.7-8.3 8.3-8.3 4.6 0 8.3 3.7 8.3 8.3 0 4.6-3.7 8.3-8.3 8.3-4.6 0-8.3-3.7-8.3-8.3M19 49.3c0 2.3.2 4.5.7 6.7 2.2-2.8 5.2-4.9 8.8-5.8-2.6-2.1-3.9-5.7-2.8-9.1 1.4-4.4 6.1-6.7 10.5-5.3 4.4 1.4 6.7 6.1 5.3 10.5-.6 1.9-1.8 3.4-3.3 4.4 6.4 2.3 10.9 8.4 10.9 15.5 0 5.8-3 10.8-7.4 13.8 2.9.9 6 1.4 9.2 1.4 8.3 0 15.9-3.2 21.6-8.4l2.1-2.1c5.1-5.7 8.3-13.2 8.3-21.4 0-17.6-14.3-31.9-31.9-31.9-17.7-.2-32 14.1-32 31.7"/></defs><clipPath id="SVGID_2_"><use xlink:href="#SVGID_1_" overflow="visible"/></clipPath><linearGradient id="SVGID_3_" gradientUnits="userSpaceOnUse" x1="-542.008" y1="468.88" x2="-541.299" y2="468.88" gradientTransform="matrix(90.0353 0 0 -90.0353 48818.918 42265.055)"><stop offset="0" stop-color="#fdc805"/><stop offset=".705" stop-color="#efae03"/><stop offset=".913" stop-color="#e29301"/><stop offset="1" stop-color="#e29301"/></linearGradient><path class="st0" d="M19 17.4h63.9v63.9H19z"/><circle class="st1" cx="32.6" cy="66.1" r="17.2"/><path d="M32.6 50.6c-8.6 0-15.5 7-15.5 15.5 0 4.7 2.1 8.8 5.3 11.7.3-.1.7-.3 1.1-.4 2.6-1 3.9-1.8 4.5-3-4.9-1.2-5.5-4.3-5.5-4.4 0-.2.1-.4.2-.5.1-.1 2.5-1.7 2.5-5.8 0-4.5.9-9.1 7.5-9.1s7.5 4.6 7.5 9.1c0 4.1 2.4 5.8 2.5 5.8.2.1.2.3.2.5 0 .1-.6 3.2-5.5 4.4.6 1.2 1.9 2 4.5 3 .4.1.7.3 1.1.4 3.3-2.8 5.3-7 5.3-11.7-.2-8.6-7.2-15.5-15.7-15.5M51 44.8c2.5 0 4.5 2 4.5 4.5s-2 4.5-4.5 4.5-4.5-2-4.5-4.5 2-4.5 4.5-4.5"/><path class="st1" d="M51 39.4c4 0 7.3-2.8 8.1-6.5-2.5-1.2-5.2-1.9-8.1-1.9-2.9 0-5.7.7-8.1 1.9.8 3.7 4.1 6.5 8.1 6.5m16.1 18.4c-2.9-2.5-7.2-2.8-10.4-.5s-4.2 6.5-2.7 10c5.7-1 10.5-4.6 13.1-9.5m-6.7-11.6c1.2 3.8 4.9 6.1 8.7 5.7.1-.9.2-1.7.2-2.6 0-5-2-9.5-5.2-12.8-3.3 2-5 6-3.7 9.7m22.5 34c-4.6 0-8.3-3.7-8.3-8.3v-1.2l-2.1 2.1c.5 5.3 4.9 9.5 10.3 9.5.6 0 1.1-.5 1.1-1.1 0-.6-.4-1-1-1M32.6 49.6c2 0 3.9.4 5.7 1 1.5-1 2.6-2.5 3.2-4.3 1.2-3.8-.4-7.8-3.7-9.8-3.2 3.3-5.2 7.9-5.2 12.9v.2z"/><path class="st1" d="M82.9 80.2c-4.6 0-8.3-3.7-8.3-8.3v-1.2l-2.1 2.1c.5 5.3 4.9 9.5 10.3 9.5.6 0 1.1-.5 1.1-1.1 0-.6-.4-1-1-1M32.6 49.6c-9.1 0-16.5 7.4-16.5 16.5 0 5.1 2.3 9.6 5.9 12.6 0 0 .1 0 .1.1.3.2.6.4.8.7.1.1.2.1.2.2 2.7 1.9 5.9 3 9.5 3 .5 0 .9 0 1.3-.1h.2c.4 0 .9-.1 1.3-.2h.1c1.4-.3 2.7-.7 4-1.3h.1c.4-.2.8-.4 1.1-.6.1 0 .1-.1.2-.1.3-.2.7-.4 1-.6.1-.1.2-.1.3-.2.3-.2.6-.5.9-.7 0 0 .1 0 .1-.1 3.6-3 5.9-7.6 5.9-12.6 0-9.2-7.4-16.6-16.5-16.6m10.2 28.2c-.3-.1-.7-.3-1.1-.4-2.6-1-3.9-1.8-4.5-3 4.9-1.2 5.5-4.3 5.5-4.4 0-.2-.1-.4-.2-.5-.1-.1-2.5-1.7-2.5-5.8 0-4.5-.9-9.1-7.5-9.1S25 59.2 25 63.7c0 4.1-2.4 5.8-2.5 5.8-.2.1-.3.3-.2.5 0 .1.6 3.2 5.5 4.4-.6 1.2-1.9 2-4.5 3-.4.1-.7.3-1.1.4-3.3-2.8-5.3-7-5.3-11.7 0-8.6 7-15.5 15.5-15.5 8.6 0 15.5 7 15.5 15.5.2 4.7-1.9 8.8-5.1 11.7"/></svg>