<?xml version="1.0" encoding="utf-8"?>
<!-- Generator: Adobe Illustrator 21.1.0, SVG Export Plug-In . SVG Version: 6.00 Build 0)  -->
<svg version="1.1" id="Layer_1" xmlns="http://www.w3.org/2000/svg" xmlns:xlink="http://www.w3.org/1999/xlink" x="0px" y="0px"
	 viewBox="0 0 100 100" style="enable-background:new 0 0 100 100;" xml:space="preserve">
<style type="text/css">
	.st0{clip-path:url(#SVGID_2_);fill:url(#SVGID_3_);}
	.st1{fill:#FFFFFF;}
</style>
<g>
	<g>
		<g>
			<defs>
				<path id="SVGID_1_" d="M54.9,68.9c-2.7-3.7-1.9-8.9,1.8-11.6c3.7-2.7,8.9-1.9,11.6,1.8c2.7,3.7,1.9,8.9-1.8,11.6
					c-1.5,1.1-3.2,1.6-4.9,1.6C59.1,72.3,56.6,71.1,54.9,68.9 M60.4,46.2c-1.4-4.4,1-9,5.3-10.5c4.4-1.4,9,1,10.5,5.3
					c1.4,4.4-1,9-5.3,10.5C70,51.8,69.1,52,68.3,52C64.8,52,61.5,49.7,60.4,46.2 M42.7,31.1c0-4.6,3.7-8.3,8.3-8.3
					c4.6,0,8.3,3.7,8.3,8.3c0,4.6-3.7,8.3-8.3,8.3C46.4,39.4,42.7,35.7,42.7,31.1 M19,49.3c0,2.3,0.2,4.5,0.7,6.7
					c2.2-2.8,5.2-4.9,8.8-5.8c-2.6-2.1-3.9-5.7-2.8-9.1c1.4-4.4,6.1-6.7,10.5-5.3c4.4,1.4,6.7,6.1,5.3,10.5
					c-0.6,1.9-1.8,3.4-3.3,4.4c6.4,2.3,10.9,8.4,10.9,15.5c0,5.8-3,10.8-7.4,13.8c2.9,0.9,6,1.4,9.2,1.4c8.3,0,15.9-3.2,21.6-8.4
					c0.7-0.7,1.4-1.4,2.1-2.1c5.1-5.7,8.3-13.2,8.3-21.4c0-17.6-14.3-31.9-31.9-31.9C33.3,17.4,19,31.7,19,49.3"/>
			</defs>
			<clipPath id="SVGID_2_">
				<use xlink:href="#SVGID_1_"  style="overflow:visible;"/>
			</clipPath>
			
				<linearGradient id="SVGID_3_" gradientUnits="userSpaceOnUse" x1="-542.0084" y1="468.8801" x2="-541.2992" y2="468.8801" gradientTransform="matrix(90.0353 0 0 -90.0353 48818.918 42265.0547)">
				<stop  offset="0" style="stop-color:#FDC805"/>
				<stop  offset="0.7054" style="stop-color:#EFAE03"/>
				<stop  offset="0.9135" style="stop-color:#E29301"/>
				<stop  offset="1" style="stop-color:#E29301"/>
			</linearGradient>
			<rect x="19" y="17.4" class="st0" width="63.9" height="63.9"/>
		</g>
		<circle class="st1" cx="32.6" cy="66.1" r="17.2"/>
		<path d="M32.6,50.6c-8.6,0-15.5,7-15.5,15.5c0,4.7,2.1,8.8,5.3,11.7c0.3-0.1,0.7-0.3,1.1-0.4c2.6-1,3.9-1.8,4.5-3
			c-4.9-1.2-5.5-4.3-5.5-4.4c0-0.2,0.1-0.4,0.2-0.5c0.1-0.1,2.5-1.7,2.5-5.8c0-4.5,0.9-9.1,7.5-9.1c6.6,0,7.5,4.6,7.5,9.1
			c0,4.1,2.4,5.8,2.5,5.8c0.2,0.1,0.2,0.3,0.2,0.5c0,0.1-0.6,3.2-5.5,4.4c0.6,1.2,1.9,2,4.5,3c0.4,0.1,0.7,0.3,1.1,0.4
			c3.3-2.8,5.3-7,5.3-11.7C48.1,57.5,41.1,50.6,32.6,50.6"/>
		<path d="M51,44.8c2.5,0,4.5,2,4.5,4.5c0,2.5-2,4.5-4.5,4.5c-2.5,0-4.5-2-4.5-4.5C46.5,46.8,48.5,44.8,51,44.8"/>
		<path class="st1" d="M51,39.4c4,0,7.3-2.8,8.1-6.5C56.6,31.7,53.9,31,51,31c-2.9,0-5.7,0.7-8.1,1.9C43.7,36.6,47,39.4,51,39.4"/>
		<path class="st1" d="M67.1,57.8c-2.9-2.5-7.2-2.8-10.4-0.5c-3.2,2.3-4.2,6.5-2.7,10C59.7,66.3,64.5,62.7,67.1,57.8"/>
		<path class="st1" d="M60.4,46.2c1.2,3.8,4.9,6.1,8.7,5.7c0.1-0.9,0.2-1.7,0.2-2.6c0-5-2-9.5-5.2-12.8
			C60.8,38.5,59.1,42.5,60.4,46.2"/>
		<path class="st1" d="M82.9,80.2c-4.6,0-8.3-3.7-8.3-8.3v-1.2c-0.7,0.7-1.4,1.4-2.1,2.1c0.5,5.3,4.9,9.5,10.3,9.5
			c0.6,0,1.1-0.5,1.1-1.1C83.9,80.6,83.5,80.2,82.9,80.2"/>
		<path class="st1" d="M32.6,49.6c2,0,3.9,0.4,5.7,1c1.5-1,2.6-2.5,3.2-4.3c1.2-3.8-0.4-7.8-3.7-9.8c-3.2,3.3-5.2,7.9-5.2,12.9
			C32.6,49.5,32.6,49.6,32.6,49.6L32.6,49.6z"/>
		<g>
			<g>
				<path class="st1" d="M82.9,80.2c-4.6,0-8.3-3.7-8.3-8.3v-1.2c-0.7,0.7-1.4,1.4-2.1,2.1c0.5,5.3,4.9,9.5,10.3,9.5
					c0.6,0,1.1-0.5,1.1-1.1C83.9,80.6,83.5,80.2,82.9,80.2"/>
			</g>
		</g>
		<path class="st1" d="M32.6,49.6c-9.1,0-16.5,7.4-16.5,16.5c0,5.1,2.3,9.6,5.9,12.6c0,0,0,0,0,0c0,0,0.1,0,0.1,0.1
			c0.3,0.2,0.6,0.4,0.8,0.7c0.1,0.1,0.2,0.1,0.2,0.2c2.7,1.9,5.9,3,9.5,3c0.5,0,0.9,0,1.3-0.1c0.1,0,0.1,0,0.2,0
			c0.4,0,0.9-0.1,1.3-0.2c0,0,0.1,0,0.1,0c1.4-0.3,2.7-0.7,4-1.3c0,0,0.1,0,0.1,0c0.4-0.2,0.8-0.4,1.1-0.6c0.1,0,0.1-0.1,0.2-0.1
			c0.3-0.2,0.7-0.4,1-0.6c0.1-0.1,0.2-0.1,0.3-0.2c0.3-0.2,0.6-0.5,0.9-0.7c0,0,0.1,0,0.1-0.1c0,0,0,0,0,0c3.6-3,5.9-7.6,5.9-12.6
			C49.1,57,41.7,49.6,32.6,49.6 M42.8,77.8c-0.3-0.1-0.7-0.3-1.1-0.4c-2.6-1-3.9-1.8-4.5-3c4.9-1.2,5.5-4.3,5.5-4.4
			c0-0.2-0.1-0.4-0.2-0.5c-0.1-0.1-2.5-1.7-2.5-5.8c0-4.5-0.9-9.1-7.5-9.1c-6.6,0-7.5,4.6-7.5,9.1c0,4.1-2.4,5.8-2.5,5.8
			c-0.2,0.1-0.3,0.3-0.2,0.5c0,0.1,0.6,3.2,5.5,4.4c-0.6,1.2-1.9,2-4.5,3c-0.4,0.1-0.7,0.3-1.1,0.4c-3.3-2.8-5.3-7-5.3-11.7
			c0-8.6,7-15.5,15.5-15.5c8.6,0,15.5,7,15.5,15.5C48.1,70.8,46,74.9,42.8,77.8"/>
	</g>
</g>
</svg>
