<?xml version="1.0" encoding="utf-8"?>
<!-- Generator: Adobe Illustrator 21.1.0, SVG Export Plug-In . SVG Version: 6.00 Build 0)  -->
<svg version="1.1" id="Layer_1" xmlns="http://www.w3.org/2000/svg" xmlns:xlink="http://www.w3.org/1999/xlink" x="0px" y="0px"
	 viewBox="0 0 100 100" style="enable-background:new 0 0 100 100;" xml:space="preserve">
<style type="text/css">
	.st0{fill:#FFCC05;}
	.st1{clip-path:url(#SVGID_2_);fill:#FFFFFF;}
	.st2{clip-path:url(#SVGID_2_);fill:#FFFFFE;}
	.st3{clip-path:url(#SVGID_2_);fill:#FFFEFD;}
	.st4{clip-path:url(#SVGID_2_);fill:#FFFEFC;}
	.st5{clip-path:url(#SVGID_2_);fill:#FEFEFB;}
	.st6{clip-path:url(#SVGID_2_);fill:#FEFDFA;}
	.st7{clip-path:url(#SVGID_2_);fill:#FEFDF9;}
	.st8{clip-path:url(#SVGID_2_);fill:#FEFDF8;}
	.st9{clip-path:url(#SVGID_2_);fill:#FEFCF7;}
	.st10{clip-path:url(#SVGID_2_);fill:#FEFCF6;}
	.st11{clip-path:url(#SVGID_2_);fill:#FEFCF5;}
	.st12{clip-path:url(#SVGID_2_);fill:#FDFBF4;}
	.st13{clip-path:url(#SVGID_2_);fill:#FDFBF3;}
	.st14{clip-path:url(#SVGID_2_);fill:#FDFBF2;}
	.st15{clip-path:url(#SVGID_2_);fill:#FDFAF1;}
	.st16{clip-path:url(#SVGID_2_);fill:#FDFAF0;}
	.st17{clip-path:url(#SVGID_2_);fill:#FDF9EF;}
	.st18{clip-path:url(#SVGID_2_);fill:#FDF9EE;}
	.st19{clip-path:url(#SVGID_2_);fill:#FCF9ED;}
	.st20{clip-path:url(#SVGID_2_);fill:#FCF8EC;}
	.st21{clip-path:url(#SVGID_2_);fill:#FCF8EB;}
	.st22{clip-path:url(#SVGID_2_);fill:#FCF8EA;}
	.st23{clip-path:url(#SVGID_2_);fill:#FCF7E9;}
	.st24{clip-path:url(#SVGID_2_);fill:#FCF7E8;}
	.st25{clip-path:url(#SVGID_2_);fill:#FCF7E7;}
	.st26{clip-path:url(#SVGID_2_);fill:#FBF6E6;}
	.st27{clip-path:url(#SVGID_2_);fill:#FBF6E5;}
	.st28{clip-path:url(#SVGID_2_);fill:#FBF6E4;}
	.st29{clip-path:url(#SVGID_2_);fill:#FBF5E3;}
	.st30{clip-path:url(#SVGID_2_);fill:#FBF5E2;}
	.st31{clip-path:url(#SVGID_2_);fill:#FBF5E1;}
	.st32{clip-path:url(#SVGID_2_);fill:#FBF4E0;}
	.st33{clip-path:url(#SVGID_2_);fill:#FAF4DF;}
	.st34{clip-path:url(#SVGID_2_);fill:#FAF4DE;}
	.st35{clip-path:url(#SVGID_2_);fill:#FAF3DD;}
	.st36{clip-path:url(#SVGID_2_);fill:#FAF3DC;}
	.st37{clip-path:url(#SVGID_2_);fill:#FAF3DB;}
	.st38{clip-path:url(#SVGID_2_);fill:#FAF2DA;}
	.st39{clip-path:url(#SVGID_2_);fill:#FAF2D9;}
	.st40{clip-path:url(#SVGID_2_);fill:#F9F2D8;}
	.st41{clip-path:url(#SVGID_2_);fill:#F9F1D7;}
	.st42{clip-path:url(#SVGID_2_);fill:#F9F1D6;}
	.st43{clip-path:url(#SVGID_2_);fill:#F9F1D5;}
	.st44{clip-path:url(#SVGID_2_);fill:#F9F0D4;}
	.st45{clip-path:url(#SVGID_2_);fill:#F9F0D3;}
	.st46{clip-path:url(#SVGID_2_);fill:#F9F0D2;}
	.st47{clip-path:url(#SVGID_2_);fill:#F8EFD1;}
	.st48{clip-path:url(#SVGID_2_);fill:#F8EFD0;}
	.st49{clip-path:url(#SVGID_2_);fill:#F8EECF;}
	.st50{clip-path:url(#SVGID_2_);fill:#F8EECE;}
	.st51{clip-path:url(#SVGID_2_);fill:#F8EECD;}
	.st52{clip-path:url(#SVGID_2_);fill:#F8EDCC;}
	.st53{clip-path:url(#SVGID_2_);fill:#F8EDCB;}
	.st54{clip-path:url(#SVGID_2_);fill:#F7EDCA;}
	.st55{clip-path:url(#SVGID_2_);fill:#F7ECC9;}
	.st56{clip-path:url(#SVGID_2_);fill:#F7ECC8;}
	.st57{clip-path:url(#SVGID_2_);fill:#F7ECC7;}
	.st58{clip-path:url(#SVGID_2_);fill:#F7EBC6;}
	.st59{clip-path:url(#SVGID_2_);fill:#F7EBC5;}
	.st60{clip-path:url(#SVGID_2_);fill:#F7EBC4;}
	.st61{clip-path:url(#SVGID_2_);fill:#F6EAC3;}
	.st62{clip-path:url(#SVGID_2_);fill:#F6EAC2;}
	.st63{clip-path:url(#SVGID_2_);fill:#F6EAC1;}
	.st64{clip-path:url(#SVGID_2_);fill:#F6E9C0;}
	.st65{clip-path:url(#SVGID_2_);fill:#F6E9BF;}
	.st66{clip-path:url(#SVGID_2_);fill:#F6E9BE;}
	.st67{clip-path:url(#SVGID_2_);fill:#F6E8BD;}
	.st68{clip-path:url(#SVGID_2_);fill:#F5E8BC;}
	.st69{clip-path:url(#SVGID_2_);fill:#F5E8BB;}
	.st70{clip-path:url(#SVGID_2_);fill:#F5E7BA;}
	.st71{clip-path:url(#SVGID_2_);fill:#F5E7B9;}
	.st72{clip-path:url(#SVGID_2_);fill:#F5E7B8;}
	.st73{clip-path:url(#SVGID_2_);fill:#F5E6B7;}
	.st74{clip-path:url(#SVGID_2_);fill:#F5E6B6;}
	.st75{clip-path:url(#SVGID_2_);fill:#F4E6B5;}
	.st76{clip-path:url(#SVGID_2_);fill:#F4E5B4;}
	.st77{clip-path:url(#SVGID_2_);fill:#F4E5B3;}
	.st78{clip-path:url(#SVGID_2_);fill:#F4E5B2;}
	.st79{clip-path:url(#SVGID_2_);fill:#F4E4B1;}
	.st80{clip-path:url(#SVGID_2_);fill:#F4E4B0;}
	.st81{clip-path:url(#SVGID_2_);fill:#F4E3AF;}
	.st82{clip-path:url(#SVGID_2_);fill:#F3E3AE;}
	.st83{clip-path:url(#SVGID_2_);fill:#F3E3AD;}
	.st84{clip-path:url(#SVGID_2_);fill:#F3E2AC;}
	.st85{clip-path:url(#SVGID_2_);fill:#F3E2AB;}
	.st86{clip-path:url(#SVGID_2_);fill:#F3E2AA;}
	.st87{clip-path:url(#SVGID_2_);fill:#F3E1A9;}
	.st88{clip-path:url(#SVGID_2_);fill:#F3E1A8;}
	.st89{clip-path:url(#SVGID_2_);fill:#F2E1A7;}
	.st90{clip-path:url(#SVGID_2_);fill:#F2E0A6;}
	.st91{clip-path:url(#SVGID_2_);fill:#F2E0A5;}
	.st92{clip-path:url(#SVGID_2_);fill:#F2E0A4;}
	.st93{clip-path:url(#SVGID_2_);fill:#F2DFA3;}
	.st94{clip-path:url(#SVGID_2_);fill:#F2DFA2;}
	.st95{clip-path:url(#SVGID_2_);fill:#F2DFA1;}
	.st96{clip-path:url(#SVGID_2_);fill:#F1DEA0;}
	.st97{clip-path:url(#SVGID_2_);fill:#F1DE9F;}
	.st98{clip-path:url(#SVGID_2_);fill:#F1DE9E;}
	.st99{clip-path:url(#SVGID_2_);fill:#F1DD9D;}
	.st100{clip-path:url(#SVGID_2_);fill:#F1DD9C;}
	.st101{clip-path:url(#SVGID_2_);fill:#F1DD9B;}
	.st102{clip-path:url(#SVGID_2_);fill:#F1DC9A;}
	.st103{clip-path:url(#SVGID_2_);fill:#F0DC99;}
	.st104{clip-path:url(#SVGID_2_);fill:#F0DC98;}
	.st105{clip-path:url(#SVGID_2_);fill:#F0DB97;}
	.st106{clip-path:url(#SVGID_2_);fill:#F0DB96;}
	.st107{clip-path:url(#SVGID_2_);fill:#F0DB95;}
	.st108{clip-path:url(#SVGID_2_);fill:#F0DA94;}
	.st109{clip-path:url(#SVGID_2_);fill:#F0DA93;}
	.st110{clip-path:url(#SVGID_2_);fill:#F0DA92;}
	.st111{clip-path:url(#SVGID_2_);fill:#EFD990;}
	.st112{clip-path:url(#SVGID_2_);fill:#EFD98F;}
	.st113{clip-path:url(#SVGID_2_);fill:#EFD88E;}
	.st114{clip-path:url(#SVGID_2_);fill:#EFD88D;}
	.st115{clip-path:url(#SVGID_2_);fill:#EFD88C;}
	.st116{clip-path:url(#SVGID_2_);fill:#EFD78B;}
	.st117{clip-path:url(#SVGID_2_);fill:#EFD78A;}
	.st118{clip-path:url(#SVGID_2_);fill:#EED789;}
	.st119{clip-path:url(#SVGID_2_);fill:#EED688;}
	.st120{clip-path:url(#SVGID_2_);fill:#EED687;}
	.st121{clip-path:url(#SVGID_2_);fill:#EED686;}
	.st122{clip-path:url(#SVGID_2_);fill:#EED585;}
	.st123{clip-path:url(#SVGID_2_);fill:#EED584;}
	.st124{clip-path:url(#SVGID_2_);fill:#EED583;}
	.st125{clip-path:url(#SVGID_2_);fill:#EDD482;}
	.st126{clip-path:url(#SVGID_2_);fill:#EDD481;}
	.st127{clip-path:url(#SVGID_2_);fill:#EDD480;}
	.st128{clip-path:url(#SVGID_2_);fill:#EDD37F;}
	.st129{clip-path:url(#SVGID_2_);fill:#EDD37E;}
	.st130{clip-path:url(#SVGID_2_);fill:#EDD37D;}
	.st131{clip-path:url(#SVGID_2_);fill:#EDD27C;}
	.st132{clip-path:url(#SVGID_2_);fill:#ECD27B;}
	.st133{clip-path:url(#SVGID_2_);fill:#ECD27A;}
	.st134{clip-path:url(#SVGID_2_);fill:#ECD179;}
	.st135{clip-path:url(#SVGID_2_);fill:#ECD178;}
	.st136{clip-path:url(#SVGID_2_);fill:#ECD177;}
	.st137{clip-path:url(#SVGID_2_);fill:#ECD076;}
	.st138{clip-path:url(#SVGID_2_);fill:#ECD075;}
	.st139{clip-path:url(#SVGID_2_);fill:#EBD074;}
	.st140{clip-path:url(#SVGID_2_);fill:#EBCF73;}
	.st141{clip-path:url(#SVGID_2_);fill:#EBCF72;}
	.st142{clip-path:url(#SVGID_2_);fill:#EBCE71;}
	.st143{clip-path:url(#SVGID_2_);fill:#EBCE70;}
	.st144{clip-path:url(#SVGID_2_);fill:#EBCE6F;}
	.st145{clip-path:url(#SVGID_2_);fill:#EBCD6E;}
	.st146{clip-path:url(#SVGID_2_);fill:#EACD6D;}
	.st147{clip-path:url(#SVGID_2_);fill:#EACD6C;}
	.st148{clip-path:url(#SVGID_2_);fill:#EACC6B;}
	.st149{clip-path:url(#SVGID_2_);fill:#EACC6A;}
	.st150{clip-path:url(#SVGID_2_);fill:#EACC69;}
	.st151{clip-path:url(#SVGID_2_);fill:#EACB68;}
	.st152{clip-path:url(#SVGID_2_);fill:#EACB67;}
	.st153{clip-path:url(#SVGID_2_);fill:#E9CB66;}
	.st154{clip-path:url(#SVGID_2_);fill:#E9CA65;}
	.st155{clip-path:url(#SVGID_2_);fill:#E9CA64;}
	.st156{clip-path:url(#SVGID_2_);fill:#E9CA63;}
	.st157{clip-path:url(#SVGID_2_);fill:#E9C962;}
	.st158{clip-path:url(#SVGID_2_);fill:#E9C961;}
	.st159{clip-path:url(#SVGID_2_);fill:#E9C960;}
	.st160{clip-path:url(#SVGID_2_);fill:#E8C85F;}
	.st161{clip-path:url(#SVGID_2_);fill:#E8C85E;}
	.st162{clip-path:url(#SVGID_2_);fill:#E8C85D;}
	.st163{clip-path:url(#SVGID_2_);fill:#E8C75C;}
	.st164{clip-path:url(#SVGID_2_);fill:#E8C75B;}
	.st165{clip-path:url(#SVGID_2_);fill:#E8C75A;}
	.st166{clip-path:url(#SVGID_2_);fill:#E8C659;}
	.st167{clip-path:url(#SVGID_2_);fill:#E7C658;}
	.st168{clip-path:url(#SVGID_2_);fill:#E7C657;}
	.st169{clip-path:url(#SVGID_2_);fill:#E7C556;}
	.st170{clip-path:url(#SVGID_2_);fill:#E7C555;}
	.st171{clip-path:url(#SVGID_2_);fill:#E7C554;}
	.st172{clip-path:url(#SVGID_2_);fill:#E7C453;}
	.st173{clip-path:url(#SVGID_2_);fill:#E7C452;}
	.st174{clip-path:url(#SVGID_2_);fill:#E6C351;}
	.st175{clip-path:url(#SVGID_2_);fill:#E6C350;}
	.st176{clip-path:url(#SVGID_2_);fill:#E6C34F;}
	.st177{clip-path:url(#SVGID_2_);fill:#E6C24E;}
	.st178{clip-path:url(#SVGID_2_);fill:#E6C24D;}
	.st179{clip-path:url(#SVGID_2_);fill:#E6C24C;}
	.st180{clip-path:url(#SVGID_2_);fill:#E6C14B;}
	.st181{clip-path:url(#SVGID_2_);fill:#E5C14A;}
	.st182{clip-path:url(#SVGID_2_);fill:#E5C149;}
	.st183{clip-path:url(#SVGID_2_);fill:#E5C048;}
	.st184{clip-path:url(#SVGID_2_);fill:#E5C047;}
	.st185{clip-path:url(#SVGID_2_);fill:#E5C046;}
	.st186{clip-path:url(#SVGID_2_);fill:#E5BF45;}
	.st187{clip-path:url(#SVGID_2_);fill:#E5BF44;}
	.st188{clip-path:url(#SVGID_2_);fill:#E4BF43;}
	.st189{clip-path:url(#SVGID_2_);fill:#E4BE42;}
	.st190{clip-path:url(#SVGID_2_);fill:#E4BE41;}
	.st191{clip-path:url(#SVGID_2_);fill:#E4BE40;}
	.st192{clip-path:url(#SVGID_2_);fill:#E4BD3F;}
	.st193{clip-path:url(#SVGID_2_);fill:#E4BD3E;}
	.st194{clip-path:url(#SVGID_2_);fill:#E4BD3D;}
	.st195{clip-path:url(#SVGID_2_);fill:#E3BC3C;}
	.st196{clip-path:url(#SVGID_2_);fill:#E3BC3B;}
	.st197{clip-path:url(#SVGID_2_);fill:#E3BC3A;}
	.st198{clip-path:url(#SVGID_2_);fill:#E3BB39;}
	.st199{clip-path:url(#SVGID_2_);fill:#E3BB38;}
	.st200{clip-path:url(#SVGID_2_);fill:#E3BB37;}
	.st201{clip-path:url(#SVGID_2_);fill:#E3BA36;}
	.st202{clip-path:url(#SVGID_2_);fill:#E2BA35;}
	.st203{clip-path:url(#SVGID_2_);fill:#E2BA34;}
	.st204{clip-path:url(#SVGID_2_);fill:#E2B933;}
	.st205{clip-path:url(#SVGID_2_);fill:#E2B932;}
	.st206{clip-path:url(#SVGID_2_);fill:#E2B831;}
	.st207{clip-path:url(#SVGID_2_);fill:#E2B830;}
	.st208{clip-path:url(#SVGID_2_);fill:#E2B82F;}
	.st209{clip-path:url(#SVGID_2_);fill:#E1B72E;}
	.st210{clip-path:url(#SVGID_2_);fill:#E1B72D;}
	.st211{clip-path:url(#SVGID_2_);fill:#E1B72C;}
	.st212{clip-path:url(#SVGID_2_);fill:#E1B62B;}
	.st213{clip-path:url(#SVGID_2_);fill:#E1B62A;}
	.st214{clip-path:url(#SVGID_2_);fill:#E1B629;}
	.st215{clip-path:url(#SVGID_2_);fill:#E1B528;}
	.st216{clip-path:url(#SVGID_2_);fill:#E0B527;}
	.st217{clip-path:url(#SVGID_2_);fill:#E0B526;}
	.st218{clip-path:url(#SVGID_2_);fill:#E0B425;}
	.st219{clip-path:url(#SVGID_2_);fill:#E0B424;}
	.st220{fill:#FFFFFF;}
</style>
<g>
	<g>
		<polygon class="st0" points="67.306,52.56 58.662,50.132 65.25,66.697 49.999,56.489 34.751,66.696 41.353,50.094 26.982,39.651 
			44.567,39.651 50,22.928 55.433,39.651 73.018,39.651 72.955,39.698 82.327,39.711 94.822,32.566 60.581,32.566 49.999,0 
			39.419,32.566 5.178,32.566 32.735,52.59 19.74,85.269 49.999,65.015 80.261,85.269 67.265,52.59 		"/>
	</g>
	<g>
		<g>
			<defs>
				<polygon id="SVGID_1_" points="67.306,52.56 58.662,50.132 65.25,66.697 49.999,56.489 34.751,66.696 41.353,50.094 
					26.982,39.651 44.567,39.651 50,22.928 55.433,39.651 73.018,39.651 72.955,39.698 82.327,39.711 94.822,32.566 60.581,32.566 
					49.999,0 39.419,32.566 5.178,32.566 32.735,52.59 19.74,85.269 49.999,65.015 80.261,85.269 67.265,52.59 				"/>
			</defs>
			<clipPath id="SVGID_2_">
				<use xlink:href="#SVGID_1_"  style="overflow:visible;"/>
			</clipPath>
			<path class="st1" d="M5.178,0v85.269V0z"/>
			<rect x="5.178" class="st1" width="0.409" height="85.269"/>
			<rect x="5.587" class="st2" width="0.409" height="85.269"/>
			<rect x="5.996" class="st3" width="0.409" height="85.269"/>
			<rect x="6.406" class="st4" width="0.409" height="85.269"/>
			<rect x="6.815" class="st5" width="0.409" height="85.269"/>
			<rect x="7.224" class="st6" width="0.409" height="85.269"/>
			<rect x="7.634" class="st7" width="0.409" height="85.269"/>
			<rect x="8.043" class="st8" width="0.409" height="85.269"/>
			<rect x="8.452" class="st9" width="0.409" height="85.269"/>
			<rect x="8.862" class="st10" width="0.409" height="85.269"/>
			<rect x="9.271" class="st11" width="0.409" height="85.269"/>
			<rect x="9.68" class="st12" width="0.409" height="85.269"/>
			<rect x="10.09" class="st13" width="0.409" height="85.269"/>
			<rect x="10.499" class="st14" width="0.409" height="85.269"/>
			<rect x="10.908" class="st15" width="0.409" height="85.269"/>
			<rect x="11.318" class="st16" width="0.409" height="85.269"/>
			<rect x="11.727" class="st17" width="0.409" height="85.269"/>
			<rect x="12.136" class="st18" width="0.409" height="85.269"/>
			<rect x="12.546" class="st19" width="0.409" height="85.269"/>
			<rect x="12.955" class="st20" width="0.409" height="85.269"/>
			<rect x="13.364" class="st21" width="0.409" height="85.269"/>
			<rect x="13.774" class="st22" width="0.409" height="85.269"/>
			<rect x="14.183" class="st23" width="0.409" height="85.269"/>
			<rect x="14.592" class="st24" width="0.409" height="85.269"/>
			<rect x="15.002" class="st25" width="0.409" height="85.269"/>
			<rect x="15.411" class="st26" width="0.409" height="85.269"/>
			<rect x="15.82" class="st27" width="0.409" height="85.269"/>
			<rect x="16.23" class="st28" width="0.409" height="85.269"/>
			<rect x="16.639" class="st29" width="0.409" height="85.269"/>
			<rect x="17.048" class="st30" width="0.409" height="85.269"/>
			<rect x="17.458" class="st31" width="0.409" height="85.269"/>
			<rect x="17.867" class="st32" width="0.409" height="85.269"/>
			<rect x="18.276" class="st33" width="0.409" height="85.269"/>
			<rect x="18.686" class="st34" width="0.409" height="85.269"/>
			<rect x="19.095" class="st35" width="0.409" height="85.269"/>
			<rect x="19.504" class="st36" width="0.409" height="85.269"/>
			<rect x="19.914" class="st37" width="0.409" height="85.269"/>
			<rect x="20.323" class="st38" width="0.409" height="85.269"/>
			<rect x="20.732" class="st39" width="0.409" height="85.269"/>
			<rect x="21.142" class="st40" width="0.409" height="85.269"/>
			<rect x="21.551" class="st41" width="0.409" height="85.269"/>
			<rect x="21.96" class="st42" width="0.409" height="85.269"/>
			<rect x="22.37" class="st43" width="0.409" height="85.269"/>
			<rect x="22.779" class="st44" width="0.409" height="85.269"/>
			<rect x="23.188" class="st45" width="0.409" height="85.269"/>
			<rect x="23.598" class="st46" width="0.409" height="85.269"/>
			<rect x="24.007" class="st47" width="0.409" height="85.269"/>
			<rect x="24.417" class="st48" width="0.409" height="85.269"/>
			<rect x="24.826" class="st49" width="0.409" height="85.269"/>
			<rect x="25.235" class="st50" width="0.409" height="85.269"/>
			<rect x="25.645" class="st51" width="0.409" height="85.269"/>
			<rect x="26.054" class="st52" width="0.409" height="85.269"/>
			<rect x="26.463" class="st53" width="0.409" height="85.269"/>
			<rect x="26.873" class="st54" width="0.409" height="85.269"/>
			<rect x="27.282" class="st55" width="0.409" height="85.269"/>
			<rect x="27.691" class="st56" width="0.409" height="85.269"/>
			<rect x="28.101" class="st57" width="0.409" height="85.269"/>
			<rect x="28.51" class="st58" width="0.409" height="85.269"/>
			<rect x="28.919" class="st59" width="0.409" height="85.269"/>
			<rect x="29.329" class="st60" width="0.409" height="85.269"/>
			<rect x="29.738" class="st61" width="0.409" height="85.269"/>
			<rect x="30.147" class="st62" width="0.409" height="85.269"/>
			<rect x="30.557" class="st63" width="0.409" height="85.269"/>
			<rect x="30.966" class="st64" width="0.409" height="85.269"/>
			<rect x="31.375" class="st65" width="0.409" height="85.269"/>
			<rect x="31.785" class="st66" width="0.409" height="85.269"/>
			<rect x="32.194" class="st67" width="0.409" height="85.269"/>
			<rect x="32.603" class="st68" width="0.409" height="85.269"/>
			<rect x="33.013" class="st69" width="0.409" height="85.269"/>
			<rect x="33.422" class="st70" width="0.409" height="85.269"/>
			<rect x="33.831" class="st71" width="0.409" height="85.269"/>
			<rect x="34.241" class="st72" width="0.409" height="85.269"/>
			<rect x="34.65" class="st73" width="0.409" height="85.269"/>
			<rect x="35.059" class="st74" width="0.409" height="85.269"/>
			<rect x="35.469" class="st75" width="0.409" height="85.269"/>
			<rect x="35.878" class="st76" width="0.409" height="85.269"/>
			<rect x="36.287" class="st77" width="0.409" height="85.269"/>
			<rect x="36.697" class="st78" width="0.409" height="85.269"/>
			<rect x="37.106" class="st79" width="0.409" height="85.269"/>
			<rect x="37.515" class="st80" width="0.409" height="85.269"/>
			<rect x="37.925" class="st81" width="0.409" height="85.269"/>
			<rect x="38.334" class="st82" width="0.409" height="85.269"/>
			<rect x="38.743" class="st83" width="0.409" height="85.269"/>
			<rect x="39.153" class="st84" width="0.409" height="85.269"/>
			<rect x="39.562" class="st85" width="0.409" height="85.269"/>
			<rect x="39.971" class="st86" width="0.409" height="85.269"/>
			<rect x="40.381" class="st87" width="0.409" height="85.269"/>
			<rect x="40.79" class="st88" width="0.409" height="85.269"/>
			<rect x="41.199" class="st89" width="0.409" height="85.269"/>
			<rect x="41.609" class="st90" width="0.409" height="85.269"/>
			<rect x="42.018" class="st91" width="0.409" height="85.269"/>
			<rect x="42.427" class="st92" width="0.409" height="85.269"/>
			<rect x="42.837" class="st93" width="0.409" height="85.269"/>
			<rect x="43.246" class="st94" width="0.409" height="85.269"/>
			<rect x="43.655" class="st95" width="0.409" height="85.269"/>
			<rect x="44.065" class="st96" width="0.409" height="85.269"/>
			<rect x="44.474" class="st97" width="0.409" height="85.269"/>
			<rect x="44.883" class="st98" width="0.409" height="85.269"/>
			<rect x="45.293" class="st99" width="0.409" height="85.269"/>
			<rect x="45.702" class="st100" width="0.409" height="85.269"/>
			<rect x="46.111" class="st101" width="0.409" height="85.269"/>
			<rect x="46.521" class="st102" width="0.409" height="85.269"/>
			<rect x="46.93" class="st103" width="0.409" height="85.269"/>
			<rect x="47.339" class="st104" width="0.409" height="85.269"/>
			<rect x="47.749" class="st105" width="0.409" height="85.269"/>
			<rect x="48.158" class="st106" width="0.409" height="85.269"/>
			<rect x="48.567" class="st107" width="0.409" height="85.269"/>
			<rect x="48.977" class="st108" width="0.409" height="85.269"/>
			<rect x="49.386" class="st109" width="0.409" height="85.269"/>
			<rect x="49.795" class="st110" width="0.409" height="85.269"/>
			<rect x="50.205" class="st111" width="0.409" height="85.269"/>
			<rect x="50.614" class="st112" width="0.409" height="85.269"/>
			<rect x="51.023" class="st113" width="0.409" height="85.269"/>
			<rect x="51.433" class="st114" width="0.409" height="85.269"/>
			<rect x="51.842" class="st115" width="0.409" height="85.269"/>
			<rect x="52.251" class="st116" width="0.409" height="85.269"/>
			<rect x="52.661" class="st117" width="0.409" height="85.269"/>
			<rect x="53.07" class="st118" width="0.409" height="85.269"/>
			<rect x="53.479" class="st119" width="0.409" height="85.269"/>
			<rect x="53.889" class="st120" width="0.409" height="85.269"/>
			<rect x="54.298" class="st121" width="0.409" height="85.269"/>
			<rect x="54.707" class="st122" width="0.409" height="85.269"/>
			<rect x="55.117" class="st123" width="0.409" height="85.269"/>
			<rect x="55.526" class="st124" width="0.409" height="85.269"/>
			<rect x="55.935" class="st125" width="0.409" height="85.269"/>
			<rect x="56.345" class="st126" width="0.409" height="85.269"/>
			<rect x="56.754" class="st127" width="0.409" height="85.269"/>
			<rect x="57.163" class="st128" width="0.409" height="85.269"/>
			<rect x="57.573" class="st129" width="0.409" height="85.269"/>
			<rect x="57.982" class="st130" width="0.409" height="85.269"/>
			<rect x="58.391" class="st131" width="0.409" height="85.269"/>
			<rect x="58.801" class="st132" width="0.409" height="85.269"/>
			<rect x="59.21" class="st133" width="0.409" height="85.269"/>
			<rect x="59.619" class="st134" width="0.409" height="85.269"/>
			<rect x="60.029" class="st135" width="0.409" height="85.269"/>
			<rect x="60.438" class="st136" width="0.409" height="85.269"/>
			<rect x="60.847" class="st137" width="0.409" height="85.269"/>
			<rect x="61.257" class="st138" width="0.409" height="85.269"/>
			<rect x="61.666" class="st139" width="0.409" height="85.269"/>
			<rect x="62.075" class="st140" width="0.409" height="85.269"/>
			<rect x="62.485" class="st141" width="0.409" height="85.269"/>
			<rect x="62.894" class="st142" width="0.409" height="85.269"/>
			<rect x="63.303" class="st143" width="0.409" height="85.269"/>
			<rect x="63.713" class="st144" width="0.409" height="85.269"/>
			<rect x="64.122" class="st145" width="0.409" height="85.269"/>
			<rect x="64.531" class="st146" width="0.409" height="85.269"/>
			<rect x="64.941" class="st147" width="0.409" height="85.269"/>
			<rect x="65.35" class="st148" width="0.409" height="85.269"/>
			<rect x="65.759" class="st149" width="0.409" height="85.269"/>
			<rect x="66.169" class="st150" width="0.409" height="85.269"/>
			<rect x="66.578" class="st151" width="0.409" height="85.269"/>
			<rect x="66.987" class="st152" width="0.409" height="85.269"/>
			<rect x="67.397" class="st153" width="0.409" height="85.269"/>
			<rect x="67.806" class="st154" width="0.409" height="85.269"/>
			<rect x="68.215" class="st155" width="0.409" height="85.269"/>
			<rect x="68.625" class="st156" width="0.409" height="85.269"/>
			<rect x="69.034" class="st157" width="0.409" height="85.269"/>
			<rect x="69.443" class="st158" width="0.409" height="85.269"/>
			<rect x="69.853" class="st159" width="0.409" height="85.269"/>
			<rect x="70.262" class="st160" width="0.409" height="85.269"/>
			<rect x="70.671" class="st161" width="0.409" height="85.269"/>
			<rect x="71.081" class="st162" width="0.409" height="85.269"/>
			<rect x="71.49" class="st163" width="0.409" height="85.269"/>
			<rect x="71.899" class="st164" width="0.409" height="85.269"/>
			<rect x="72.309" class="st165" width="0.409" height="85.269"/>
			<rect x="72.718" class="st166" width="0.409" height="85.269"/>
			<rect x="73.127" class="st167" width="0.409" height="85.269"/>
			<rect x="73.537" class="st168" width="0.409" height="85.269"/>
			<rect x="73.946" class="st169" width="0.409" height="85.269"/>
			<rect x="74.355" class="st170" width="0.409" height="85.269"/>
			<rect x="74.765" class="st171" width="0.409" height="85.269"/>
			<rect x="75.174" class="st172" width="0.409" height="85.269"/>
			<rect x="75.583" class="st173" width="0.409" height="85.269"/>
			<rect x="75.993" class="st174" width="0.409" height="85.269"/>
			<rect x="76.402" class="st175" width="0.409" height="85.269"/>
			<rect x="76.812" class="st176" width="0.409" height="85.269"/>
			<rect x="77.221" class="st177" width="0.409" height="85.269"/>
			<rect x="77.63" class="st178" width="0.409" height="85.269"/>
			<rect x="78.04" class="st179" width="0.409" height="85.269"/>
			<rect x="78.449" class="st180" width="0.409" height="85.269"/>
			<rect x="78.858" class="st181" width="0.409" height="85.269"/>
			<rect x="79.268" class="st182" width="0.409" height="85.269"/>
			<rect x="79.677" class="st183" width="0.409" height="85.269"/>
			<rect x="80.086" class="st184" width="0.409" height="85.269"/>
			<rect x="80.496" class="st185" width="0.409" height="85.269"/>
			<rect x="80.905" class="st186" width="0.409" height="85.269"/>
			<rect x="81.314" class="st187" width="0.409" height="85.269"/>
			<rect x="81.724" class="st188" width="0.409" height="85.269"/>
			<rect x="82.133" class="st189" width="0.409" height="85.269"/>
			<rect x="82.542" class="st190" width="0.409" height="85.269"/>
			<rect x="82.952" class="st191" width="0.409" height="85.269"/>
			<rect x="83.361" class="st192" width="0.409" height="85.269"/>
			<rect x="83.77" class="st193" width="0.409" height="85.269"/>
			<rect x="84.18" class="st194" width="0.409" height="85.269"/>
			<rect x="84.589" class="st195" width="0.409" height="85.269"/>
			<rect x="84.998" class="st196" width="0.409" height="85.269"/>
			<rect x="85.408" class="st197" width="0.409" height="85.269"/>
			<rect x="85.817" class="st198" width="0.409" height="85.269"/>
			<rect x="86.226" class="st199" width="0.409" height="85.269"/>
			<rect x="86.636" class="st200" width="0.409" height="85.269"/>
			<rect x="87.045" class="st201" width="0.409" height="85.269"/>
			<rect x="87.454" class="st202" width="0.409" height="85.269"/>
			<rect x="87.864" class="st203" width="0.409" height="85.269"/>
			<rect x="88.273" class="st204" width="0.409" height="85.269"/>
			<rect x="88.682" class="st205" width="0.409" height="85.269"/>
			<rect x="89.092" class="st206" width="0.409" height="85.269"/>
			<rect x="89.501" class="st207" width="0.409" height="85.269"/>
			<rect x="89.91" class="st208" width="0.409" height="85.269"/>
			<rect x="90.32" class="st209" width="0.409" height="85.269"/>
			<rect x="90.729" class="st210" width="0.409" height="85.269"/>
			<rect x="91.138" class="st211" width="0.409" height="85.269"/>
			<rect x="91.548" class="st212" width="0.409" height="85.269"/>
			<rect x="91.957" class="st213" width="0.409" height="85.269"/>
			<rect x="92.366" class="st214" width="0.409" height="85.269"/>
			<rect x="92.776" class="st215" width="0.409" height="85.269"/>
			<rect x="93.185" class="st216" width="0.409" height="85.269"/>
			<rect x="93.594" class="st217" width="0.409" height="85.269"/>
			<rect x="94.004" class="st218" width="0.409" height="85.269"/>
			<rect x="94.413" class="st219" width="0.409" height="85.269"/>
			<path class="st219" d="M94.822,85.269V0V85.269z"/>
		</g>
	</g>
	<g>
		<rect x="48.138" y="65.015" class="st0" width="3.724" height="29.849"/>
	</g>
	<g>
		<path class="st220" d="M80.467,100H19.532v-2.539c0-2.793,2.285-5.078,5.078-5.078H75.39c2.793,0,5.078,2.285,5.078,5.078
			L80.467,100L80.467,100z"/>
	</g>
</g>
</svg>
