<?xml version="1.0" encoding="utf-8"?>
<!-- Generator: Adobe Illustrator 21.1.0, SVG Export Plug-In . SVG Version: 6.00 Build 0)  -->
<svg version="1.1" id="Layer_1" xmlns="http://www.w3.org/2000/svg" xmlns:xlink="http://www.w3.org/1999/xlink" x="0px" y="0px"
	 viewBox="0 0 100 100" style="enable-background:new 0 0 100 100;" xml:space="preserve">
<style type="text/css">
	.st0{fill:#FFFFFF;}
	.st1{fill:url(#SVGID_1_);}
</style>
<g>
	<path class="st0" d="M32.4,63.1L21,66.3c0,0,1.3-7.5,10.4-10.4c-0.7-9.5,0.9-19.1,2.7-25.7c0.4-1.5,0.8-2.8,1.2-4.1
		c-2.8,1.7-6.7,3.5-11.4,4.7C15.4,33.1,8.7,32.5,5.9,32c-4-0.7-6.1-1.6-5.9,1.5c0.2,2.7,0.8,6.8,2.3,12.4
		c3.1,11.9,13.5,34.8,33.2,29.5c0.5-0.1,1-0.3,1.5-0.5C34.7,71.4,33.3,67.3,32.4,63.1z M9.8,46l14-3.7c0,0-0.4,5.4-5.6,6.8
		C12.9,50.5,9.8,46,9.8,46z"/>
	<linearGradient id="SVGID_1_" gradientUnits="userSpaceOnUse" x1="31.1971" y1="50" x2="100" y2="50">
		<stop  offset="0" style="stop-color:#FDC805"/>
		<stop  offset="0.7054" style="stop-color:#EFAE03"/>
		<stop  offset="0.9135" style="stop-color:#E29301"/>
	</linearGradient>
	<path class="st1" d="M92.2,28.9c-3.8,0.6-12.7,1.5-23.7-1.5c-11-3-18.4-8.1-21.3-10.6c-4.1-3.4-5.9-5.8-7.7-2.2
		C38,17.8,36,23,34,30.3C29.8,46,26.7,79.2,52.7,86.1c26.1,7,40-23.3,44.2-39c2-7.3,2.8-12.8,3.1-16.3
		C100.3,26.8,97.6,27.9,92.2,28.9z M39.8,41.9c0,0,4.1-6.5,11.2-4.5c7,2,7.6,9.8,7.6,9.8L39.8,41.9z M56.9,70.5
		c-12.3-3.6-14.2-13.4-14.2-13.4l32.9,9.2C75.6,66.3,69,74,56.9,70.5z M68.8,50.5c0,0,4-6.4,10.7-4.5c6.7,2,7.3,9.8,7.3,9.8
		L68.8,50.5z"/>
</g>
</svg>
