<svg id="Layer_1" xmlns="http://www.w3.org/2000/svg" xmlns:xlink="http://www.w3.org/1999/xlink" viewBox="0 0 100 100"><style>.st0{clip-path:url(#SVGID_2_);fill:url(#SVGID_3_)}.st1{fill:#fff}</style><defs><path id="SVGID_1_" d="M54.845 68.934a8.302 8.302 0 1 1 13.432-9.76 8.302 8.302 0 0 1-13.432 9.76m5.431-22.662a8.3 8.3 0 1 1 15.79-5.13 8.301 8.301 0 0 1-15.79 5.13m-17.714-15.14a8.302 8.302 0 1 1 16.603 0 8.302 8.302 0 0 1-16.603 0m-23.626 18.2c0 2.288.245 4.52.704 6.672a16.456 16.456 0 0 1 8.778-5.785c-2.65-2.092-3.862-5.679-2.758-9.077a8.302 8.302 0 0 1 15.79 5.13 8.266 8.266 0 0 1-3.326 4.36c6.373 2.27 10.936 8.354 10.936 15.506 0 5.754-2.956 10.818-7.431 13.759a31.911 31.911 0 0 0 9.235 1.361 31.81 31.81 0 0 0 21.593-8.413 32.42 32.42 0 0 0 2.082-2.096 31.811 31.811 0 0 0 8.252-21.417c0-17.635-14.295-31.928-31.927-31.928-17.634 0-31.928 14.293-31.928 31.928"/></defs><clipPath id="SVGID_2_"><use xlink:href="#SVGID_1_" overflow="visible"/></clipPath><linearGradient id="SVGID_3_" gradientUnits="userSpaceOnUse" x1="-540.343" y1="468.88" x2="-539.634" y2="468.88" gradientTransform="matrix(90.0353 0 0 -90.0353 48668.918 42265.055)"><stop offset="0" stop-color="#fdc805"/><stop offset=".705" stop-color="#efae03"/><stop offset=".914" stop-color="#e29301"/><stop offset="1" stop-color="#e29301"/></linearGradient><path class="st0" d="M18.936 17.404h63.855v63.854H18.936z"/><path d="M50.863 44.86a4.47 4.47 0 1 1 0 8.941 4.47 4.47 0 0 1 0-8.94"/><path class="st1" d="M50.863 39.427c3.96 0 7.266-2.775 8.096-6.484-2.44-1.209-5.188-1.891-8.096-1.891s-5.655.682-8.095 1.89c.83 3.71 4.136 6.485 8.095 6.485M67.04 57.819c-2.851-2.513-7.156-2.814-10.359-.488-3.203 2.327-4.248 6.515-2.74 10.003 5.7-.968 10.499-4.572 13.1-9.515m-6.765-11.553c1.224 3.765 4.884 6.053 8.668 5.696a18.5 18.5 0 0 0 .192-2.638c0-4.965-1.984-9.466-5.198-12.758-3.27 1.935-4.885 5.935-3.662 9.7M32.603 49.68c-9.073 0-16.458 7.385-16.458 16.458 0 8.097 5.881 14.843 13.594 16.203.79.168 1.591.264 2.376.242.162.005.324.013.488.013.382 0 .76-.018 1.136-.044l.28-.021c.37-.032.74-.072 1.104-.129.034-.005.066-.012.1-.018.34-.054.675-.12 1.007-.196.092-.021.183-.041.274-.063a15.78 15.78 0 0 0 1.05-.293c.055-.017.108-.036.163-.054.32-.105.636-.22.948-.345.062-.024.126-.048.187-.074a16.47 16.47 0 0 0 3.238-1.786c.013-.01.027-.017.04-.026.002-.001.002-.005.005-.006 4.187-2.986 6.926-7.88 6.926-13.403 0-9.073-7.383-16.458-16.458-16.458m9.174 28.9c-3.916-1.489-4.566-2.729-4.566-5.063 0-.634.141-.838.395-1.212.34-.493.802-1.17 1.124-2.933.049-.253.093-.273.317-.38.608-.292 1.164-.712 1.305-2.66 0-.904-.322-1.41-.585-1.674.181-1.194.712-5.606-.954-7.54-.64-.745-1.444-1.1-2.119-1.273l-.134-.129-.168.06a5.347 5.347 0 0 0-.813-.095c-.853-.896-3.565-1.647-6.96-.272-2.23.902-3.174 2.4-3.492 4.035l-.025.029.01.066c-.214 1.194-.106 2.455.083 3.61.087.617.184 1.187.243 1.519-.256.25-.55.74-.575 1.59l-.01.017.007.01c0 .03-.007.051-.007.083.147 1.912.702 2.332 1.306 2.624.224.107.268.127.317.38.321 1.763.784 2.44 1.125 2.933.254.374.394.578.394 1.212 0 2.333-.648 3.573-4.564 5.06-3.81-2.819-6.287-7.344-6.287-12.439 0-8.524 6.935-15.459 15.459-15.459 8.528 0 15.465 6.935 15.465 15.46 0 5.095-2.478 9.621-6.29 12.44m41.012 1.615c-4.55 0-8.251-3.701-8.251-8.251v-1.194c-.661.73-1.357 1.43-2.083 2.096.46 5.302 4.915 9.478 10.335 9.478a1.064 1.064 0 1 0 0-2.129"/><path class="st1" d="M32.501 49.67c2.004 0 3.925.355 5.704 1.005a8.323 8.323 0 0 0 3.231-4.313c1.236-3.802-.395-7.841-3.697-9.797a18.392 18.392 0 0 0-5.25 12.885c0 .075.008.146.01.22h.002z"/><circle class="st1" cx="32.606" cy="66.138" r="17.176"/><path d="M32.603 50.679c-8.524 0-15.46 6.935-15.46 15.46 0 5.094 2.477 9.62 6.288 12.438 3.916-1.487 4.564-2.727 4.564-5.06 0-.634-.14-.838-.394-1.213-.341-.491-.804-1.169-1.125-2.932-.05-.253-.093-.273-.317-.38-.604-.292-1.159-.71-1.306-2.625 0-.03.007-.054.007-.083l-.007-.01.01-.015c.026-.85.32-1.341.575-1.591a44.862 44.862 0 0 1-.243-1.52c-.189-1.154-.297-2.415-.084-3.61l-.01-.065.026-.03c.318-1.634 1.262-3.132 3.492-4.035 3.395-1.374 6.107-.624 6.96.273.189.007.479.032.813.095l.168-.06.134.129c.675.174 1.479.528 2.12 1.273 1.665 1.934 1.134 6.346.953 7.54.263.263.585.769.585 1.674-.14 1.95-.697 2.368-1.305 2.66-.224.107-.268.127-.317.38-.322 1.763-.784 2.44-1.124 2.932-.254.375-.395.58-.395 1.212 0 2.334.65 3.574 4.566 5.063 3.813-2.82 6.291-7.345 6.291-12.44 0-8.525-6.937-15.46-15.465-15.46"/></svg>