<?xml version="1.0" encoding="utf-8"?>
<!-- Generator: Adobe Illustrator 21.1.0, SVG Export Plug-In . SVG Version: 6.00 Build 0)  -->
<svg version="1.1" id="Layer_1" xmlns="http://www.w3.org/2000/svg" xmlns:xlink="http://www.w3.org/1999/xlink" x="0px" y="0px"
	 viewBox="0 0 100 100" style="enable-background:new 0 0 100 100;" xml:space="preserve">
<style type="text/css">
	.st0{fill:url(#SVGID_1_);}
	.st1{fill:#FFCC05;}
	.st2{fill:#FFFFFF;}
</style>
<g>
	<linearGradient id="SVGID_1_" gradientUnits="userSpaceOnUse" x1="5.1777" y1="42.6347" x2="94.8223" y2="42.6347">
		<stop  offset="0" style="stop-color:#FDC805"/>
		<stop  offset="0.7054" style="stop-color:#EFAE03"/>
		<stop  offset="0.9135" style="stop-color:#E29301"/>
	</linearGradient>
	<polygon class="st0" points="67.3,52.6 58.7,50.1 65.2,66.7 50,56.5 34.8,66.7 41.4,50.1 27,39.7 44.6,39.7 50,22.9 55.4,39.7 
		73,39.7 73,39.7 82.3,39.7 94.8,32.6 60.6,32.6 50,0 39.4,32.6 5.2,32.6 32.7,52.6 19.7,85.3 50,65 80.3,85.3 67.3,52.6 	"/>
	<polygon class="st1" points="50,65 51.9,66.3 51.9,92.4 48.1,92.4 48.1,66.3 	"/>
	<path class="st2" d="M80.5,100H19.5v-2.5c0-2.8,2.3-5.1,5.1-5.1h50.8c2.8,0,5.1,2.3,5.1,5.1L80.5,100L80.5,100z"/>
</g>
</svg>
