<?xml version="1.0" encoding="utf-8"?>
<!-- Generator: Adobe Illustrator 21.1.0, SVG Export Plug-In . SVG Version: 6.00 Build 0)  -->
<svg version="1.1" id="Layer_1" xmlns="http://www.w3.org/2000/svg" xmlns:xlink="http://www.w3.org/1999/xlink" x="0px" y="0px"
	 viewBox="0 0 100 100" style="enable-background:new 0 0 100 100;" xml:space="preserve">
<style type="text/css">
	.st0{fill:#FFFFFF;}
	.st1{fill:url(#SVGID_1_);}
</style>
<g>
	<circle cx="51.3" cy="49" r="6.6"/>
	<g>
		<path class="st0" d="M51.3,34.4c5.8,0,10.7-4.1,12-9.6c-3.6-1.8-7.7-2.8-12-2.8s-8.4,1-12,2.8C40.5,30.3,45.4,34.4,51.3,34.4z"/>
		<path class="st0" d="M75.2,61.5c-4.2-3.7-10.6-4.2-15.3-0.7c-4.7,3.4-6.3,9.6-4,14.8C64.2,74.2,71.3,68.8,75.2,61.5z"/>
		<path class="st0" d="M65.2,44.5C67,50,72.4,53.4,78,52.9c0.2-1.3,0.3-2.6,0.3-3.9c0-7.3-2.9-14-7.7-18.8
			C65.8,33,63.4,38.9,65.2,44.5z"/>
	</g>
	<g>
		<path d="M24.3,51C11.7,51,1.5,61.2,1.5,73.8c0,7.5,3.7,14.2,9.3,18.4c5.8-2.2,6.7-4,6.7-7.5c0-0.9-0.2-1.2-0.6-1.8
			c-0.5-0.7-1.2-1.7-1.7-4.3c-0.1-0.4-0.1-0.4-0.5-0.6c-0.9-0.4-1.7-1-1.9-3.9c0,0,0-0.1,0-0.1l0,0l0,0c0-1.3,0.5-2,0.8-2.3
			c-0.1-0.5-0.2-1.3-0.4-2.2c-0.3-1.7-0.4-3.6-0.1-5.3l0-0.1l0,0c0.5-2.4,1.9-4.6,5.2-6c5-2,9-0.9,10.3,0.4c0.3,0,0.7,0,1.2,0.1
			l0.2-0.1l0.2,0.2c1,0.3,2.2,0.8,3.1,1.9c2.5,2.9,1.7,9.4,1.4,11.1c0.4,0.4,0.9,1.1,0.9,2.5c-0.2,2.9-1,3.5-1.9,3.9
			c-0.3,0.2-0.4,0.2-0.5,0.6c-0.5,2.6-1.2,3.6-1.7,4.3c-0.4,0.6-0.6,0.9-0.6,1.8c0,3.4,1,5.3,6.7,7.5c5.6-4.2,9.3-10.8,9.3-18.4
			C47.1,61.2,36.9,51,24.3,51z"/>
		<path class="st0" d="M24.3,49.5C10.9,49.5,0,60.4,0,73.8c0,12,8.7,21.9,20.1,23.9c1.2,0.2,2.3,0.4,3.5,0.4c0.2,0,0.5,0,0.7,0
			c0.6,0,1.1,0,1.7-0.1c0.1,0,0.3,0,0.4,0c0.5,0,1.1-0.1,1.6-0.2c0,0,0.1,0,0.1,0c0.5-0.1,1-0.2,1.5-0.3c0.1,0,0.3-0.1,0.4-0.1
			c0.5-0.1,1-0.3,1.6-0.4c0.1,0,0.2-0.1,0.2-0.1c0.5-0.2,0.9-0.3,1.4-0.5c0.1,0,0.2-0.1,0.3-0.1c0.5-0.2,1-0.4,1.5-0.7
			c0.1,0,0.1-0.1,0.2-0.1c1.1-0.5,2.1-1.2,3.1-1.8c0,0,0,0,0.1,0c0,0,0,0,0,0c6.2-4.4,10.2-11.6,10.2-19.8
			C48.6,60.4,37.7,49.5,24.3,49.5z M37.9,92.2c-5.8-2.2-6.7-4-6.7-7.5c0-0.9,0.2-1.2,0.6-1.8c0.5-0.7,1.2-1.7,1.7-4.3
			c0.1-0.4,0.1-0.4,0.5-0.6c0.9-0.4,1.7-1,1.9-3.9c0-1.3-0.5-2.1-0.9-2.5c0.3-1.8,1.1-8.3-1.4-11.1c-0.9-1.1-2.1-1.6-3.1-1.9
			l-0.2-0.2l-0.2,0.1c-0.5-0.1-0.9-0.1-1.2-0.1c-1.3-1.3-5.3-2.4-10.3-0.4c-3.3,1.3-4.7,3.5-5.2,6l0,0l0,0.1
			c-0.3,1.8-0.2,3.6,0.1,5.3c0.1,0.9,0.3,1.8,0.4,2.2c-0.4,0.4-0.8,1.1-0.8,2.3l0,0l0,0c0,0,0,0.1,0,0.1c0.2,2.8,1,3.4,1.9,3.9
			c0.3,0.2,0.4,0.2,0.5,0.6c0.5,2.6,1.2,3.6,1.7,4.3c0.4,0.6,0.6,0.9,0.6,1.8c0,3.4-1,5.3-6.7,7.5C5.1,88,1.5,81.4,1.5,73.8
			C1.5,61.2,11.7,51,24.3,51c12.6,0,22.8,10.2,22.8,22.8C47.1,81.4,43.5,88,37.9,92.2z"/>
	</g>
	<g>
		<path class="st0" d="M98.4,94.6c-6.7,0-12.2-5.5-12.2-12.2v-1.8c-1,1.1-2,2.1-3.1,3.1c0.7,7.8,7.3,14,15.3,14
			c0.9,0,1.6-0.7,1.6-1.6S99.3,94.6,98.4,94.6z"/>
		<linearGradient id="SVGID_1_" gradientUnits="userSpaceOnUse" x1="4.1217" y1="49.0127" x2="98.4282" y2="49.0127">
			<stop  offset="0" style="stop-color:#FDC805"/>
			<stop  offset="0.7054" style="stop-color:#EFAE03"/>
			<stop  offset="0.9135" style="stop-color:#E29301"/>
		</linearGradient>
		<path class="st1" d="M86.2,80.6c7.6-8.4,12.2-19.5,12.2-31.6c0-26-21.1-47.2-47.2-47.2S4.1,23,4.1,49c0,3.4,0.4,6.7,1,9.9
			c3.2-4.1,7.8-7.2,13-8.5c-3.9-3.1-5.7-8.4-4.1-13.4c2.1-6.4,9-10,15.4-7.9c6.4,2.1,10,9,7.9,15.4c-0.9,2.8-2.7,5-4.9,6.4
			c9.4,3.4,16.2,12.3,16.2,22.9c0,8.5-4.4,16-11,20.3c4.3,1.3,8.9,2,13.6,2c12.3,0,23.5-4.7,31.9-12.4
			C84.2,82.8,85.3,81.7,86.2,80.6z M39,22.1c0-6.8,5.5-12.3,12.3-12.3s12.3,5.5,12.3,12.3c0,6.8-5.5,12.3-12.3,12.3
			C44.5,34.4,39,28.9,39,22.1z M74.3,80.7c-5.5,4-13.1,2.8-17.1-2.7c-4-5.5-2.8-13.1,2.7-17.1c5.5-4,13.1-2.8,17.1,2.7
			C81,69,79.8,76.7,74.3,80.7z M80.6,52.4c-6.4,2.1-13.4-1.4-15.4-7.9C63.1,38.1,66.6,31.1,73,29c6.4-2.1,13.4,1.4,15.4,7.9
			C90.6,43.4,87.1,50.3,80.6,52.4z"/>
	</g>
	<path class="st0" d="M24.2,49.5c3,0,5.8,0.5,8.4,1.5c2.2-1.5,3.9-3.7,4.8-6.4c1.8-5.6-0.6-11.6-5.5-14.5c-4.8,4.9-7.8,11.6-7.8,19
		C24.1,49.3,24.1,49.4,24.2,49.5C24.2,49.5,24.2,49.5,24.2,49.5z"/>
</g>
</svg>
