<svg id="Layer_1" xmlns="http://www.w3.org/2000/svg" xmlns:xlink="http://www.w3.org/1999/xlink" viewBox="0 0 100 100"><style>.st0{clip-path:url(#SVGID_2_);fill:url(#SVGID_3_)}.st1{fill:#ffcc05}.st2{fill:#fff}</style><defs><path id="SVGID_1_" d="M42.7 35.7H19.2l18.9 13.7-8.9 22.4L50 57.9l20.8 13.9-8.9-22.4-6-1.7 4.6 11.4-10.5-7-10.5 7 4.6-11.4-9.9-7.2h12.1L50 29l3.7 11.5h12.1v.1h6.4l8.6-4.9H57.3L50 13.3z"/></defs><clipPath id="SVGID_2_"><use xlink:href="#SVGID_1_" overflow="visible"/></clipPath><linearGradient id="SVGID_3_" gradientUnits="userSpaceOnUse" x1="-544.787" y1="468.778" x2="-543.923" y2="468.778" gradientTransform="matrix(71.2222 0 0 -71.2222 38820.137 33429.992)"><stop offset="0" stop-color="#fdc805"/><stop offset=".705" stop-color="#efae03"/><stop offset=".913" stop-color="#e29301"/><stop offset="1" stop-color="#e29301"/></linearGradient><path class="st0" d="M19.2 13.3h61.5v58.5H19.2z"/><path class="st1" d="M50 57.9l1.3.9v17.9h-2.6V58.8z"/><path class="st2" d="M70.9 82H29.1v-1.7c0-1.9 1.6-3.5 3.5-3.5h34.9c1.9 0 3.5 1.6 3.5 3.5V82z"/></svg>