<?xml version="1.0" encoding="utf-8"?>
<!-- Generator: Adobe Illustrator 21.1.0, SVG Export Plug-In . SVG Version: 6.00 Build 0)  -->
<svg version="1.1" id="Layer_1" xmlns="http://www.w3.org/2000/svg" xmlns:xlink="http://www.w3.org/1999/xlink" x="0px" y="0px"
	 viewBox="0 0 100 100" style="enable-background:new 0 0 100 100;" xml:space="preserve">
<style type="text/css">
	.st0{fill:#FFFFFF;}
	.st1{clip-path:url(#SVGID_2_);fill:url(#SVGID_3_);}
	.st2{clip-path:url(#SVGID_5_);fill:url(#SVGID_6_);}
</style>
<g>
	<g>
		<path class="st0" d="M71.5,40.1c-0.6,0-1.1,0.5-1.1,1.1v0.4h-6.6v2.3h3.5v6.2c0,9.5-7.8,17.3-17.3,17.3c-9.5,0-17.3-7.8-17.3-17.3
			v-6.2h3.5v-2.3h-6.6v-0.4c0-0.6-0.5-1.1-1.1-1.1c-0.6,0-1.1,0.5-1.1,1.1v3.1c0,0.6,0.5,1.1,1.1,1.1c0.6,0,1.1-0.5,1.1-1.1v-0.4
			h0.8v6.2c0,10.4,8.2,18.9,18.4,19.5v8.1H34.6c-1.7,0-3.1,1.4-3.1,3.1v1.5h36.9h0v-1.5c0-1.7-1.4-3.1-3.1-3.1H51.1v-8.1
			c10.3-0.6,18.4-9.1,18.4-19.5v-6.2h0.8v0.4c0,0.6,0.5,1.1,1.1,1.1c0.6,0,1.1-0.5,1.1-1.1v-3.1C72.6,40.6,72.1,40.1,71.5,40.1"/>
		<path class="st0" d="M38.6,27.1c0-6.3,5.1-11.4,11.4-11.4c6.3,0,11.4,5.1,11.4,11.4v13.4h1.7V27.1c0-7.2-5.9-13.1-13.1-13.1
			c-7.2,0-13.1,5.9-13.1,13.1v13.4h1.7V27.1z"/>
		<g>
			<defs>
				<polygon id="SVGID_1_" points="63.1,40.4 61.4,40.4 38.6,40.4 36.9,40.4 36.2,40.4 36.2,43.9 36.2,43.9 63.8,43.9 63.8,43.9 
					63.8,40.4 				"/>
			</defs>
			<clipPath id="SVGID_2_">
				<use xlink:href="#SVGID_1_"  style="overflow:visible;"/>
			</clipPath>
			
				<linearGradient id="SVGID_3_" gradientUnits="userSpaceOnUse" x1="-540.8706" y1="467.2753" x2="-540.0147" y2="467.2753" gradientTransform="matrix(32.2973 0 0 -32.2973 17504.8379 15133.918)">
				<stop  offset="0" style="stop-color:#FDC805"/>
				<stop  offset="0.7054" style="stop-color:#EFAE03"/>
				<stop  offset="0.9135" style="stop-color:#E29301"/>
				<stop  offset="1" style="stop-color:#E29301"/>
			</linearGradient>
			<rect x="36.2" y="40.4" class="st1" width="27.6" height="3.5"/>
		</g>
		<g>
			<defs>
				<path id="SVGID_4_" d="M36.2,46.2v3.9c0,7.6,6.2,13.8,13.8,13.8c7.6,0,13.8-6.2,13.8-13.8v-3.9H36.2z"/>
			</defs>
			<clipPath id="SVGID_5_">
				<use xlink:href="#SVGID_4_"  style="overflow:visible;"/>
			</clipPath>
			
				<linearGradient id="SVGID_6_" gradientUnits="userSpaceOnUse" x1="-540.8706" y1="467.3424" x2="-540.0147" y2="467.3424" gradientTransform="matrix(32.2973 0 0 -32.2973 17504.8379 15148.959)">
				<stop  offset="0" style="stop-color:#FDC805"/>
				<stop  offset="0.7054" style="stop-color:#EFAE03"/>
				<stop  offset="0.9135" style="stop-color:#E29301"/>
				<stop  offset="1" style="stop-color:#E29301"/>
			</linearGradient>
			<rect x="36.2" y="46.2" class="st2" width="27.6" height="17.8"/>
		</g>
		<path class="st0" d="M43.9,33.2c0.6,0,1.1,0.5,1.1,1.1c0,0.6-0.5,1.1-1.1,1.1c-0.6,0-1.1-0.5-1.1-1.1
			C42.7,33.7,43.2,33.2,43.9,33.2"/>
		<path class="st0" d="M50,33.2c0.6,0,1.1,0.5,1.1,1.1c0,0.6-0.5,1.1-1.1,1.1c-0.6,0-1.1-0.5-1.1-1.1C48.9,33.7,49.4,33.2,50,33.2"
			/>
		<path class="st0" d="M56.1,33.2c0.6,0,1.1,0.5,1.1,1.1c0,0.6-0.5,1.1-1.1,1.1c-0.6,0-1.1-0.5-1.1-1.1C55,33.7,55.5,33.2,56.1,33.2
			"/>
		<path class="st0" d="M43.9,27c0.6,0,1.1,0.5,1.1,1.1c0,0.6-0.5,1.1-1.1,1.1c-0.6,0-1.1-0.5-1.1-1.1C42.7,27.5,43.2,27,43.9,27"/>
		<path class="st0" d="M50,27c0.6,0,1.1,0.5,1.1,1.1c0,0.6-0.5,1.1-1.1,1.1c-0.6,0-1.1-0.5-1.1-1.1C48.9,27.5,49.4,27,50,27"/>
		<path class="st0" d="M56.1,27c0.6,0,1.1,0.5,1.1,1.1c0,0.6-0.5,1.1-1.1,1.1c-0.6,0-1.1-0.5-1.1-1.1C55,27.5,55.5,27,56.1,27"/>
		<path class="st0" d="M44.2,20.8c0.6,0,1.1,0.5,1.1,1.1c0,0.6-0.5,1.1-1.1,1.1c-0.6,0-1.1-0.5-1.1-1.1
			C43.1,21.3,43.6,20.8,44.2,20.8"/>
		<path class="st0" d="M50,20.8c0.6,0,1.1,0.5,1.1,1.1c0,0.6-0.5,1.1-1.1,1.1c-0.6,0-1.1-0.5-1.1-1.1C48.9,21.3,49.4,20.8,50,20.8"
			/>
		<path class="st0" d="M55.9,20.8c0.6,0,1.1,0.5,1.1,1.1c0,0.6-0.5,1.1-1.1,1.1c-0.6,0-1.1-0.5-1.1-1.1
			C54.8,21.3,55.3,20.8,55.9,20.8"/>
		<rect x="36.2" y="43.9" class="st0" width="27.6" height="3.3"/>
	</g>
</g>
</svg>
