<?xml version="1.0" encoding="utf-8"?>
<!-- Generator: Adobe Illustrator 21.1.0, SVG Export Plug-In . SVG Version: 6.00 Build 0)  -->
<svg version="1.1" id="Layer_1" xmlns="http://www.w3.org/2000/svg" xmlns:xlink="http://www.w3.org/1999/xlink" x="0px" y="0px"
	 viewBox="0 0 100 100" style="enable-background:new 0 0 100 100;" xml:space="preserve">
<style type="text/css">
	.st0{fill:#FFFFFF;}
	.st1{fill:none;}
	.st2{fill:url(#SVGID_1_);}
</style>
<g>
	<g>
		<path d="M24.3,50.9c-12.6,0-22.9,10.3-22.9,22.9c0,6.9,3,13,7.8,17.2c0.5-0.2,1-0.4,1.6-0.6c3.9-1.4,5.8-2.6,6.6-4.4
			c-7.3-1.8-8.1-6.3-8.1-6.5c0-0.3,0.1-0.6,0.3-0.7c0.1-0.1,3.6-2.5,3.6-8.6c0-6.6,1.3-13.4,11-13.4c9.7,0,11,6.8,11,13.4
			c0,6.1,3.5,8.5,3.6,8.6c0.2,0.2,0.4,0.5,0.3,0.7c0,0.2-0.9,4.7-8.1,6.5c0.8,1.7,2.7,3,6.6,4.4c0.6,0.2,1.1,0.4,1.6,0.6
			c4.8-4.2,7.8-10.4,7.8-17.2C47.2,61.1,37,50.9,24.3,50.9z"/>
		<path class="st0" d="M24.3,49.4C10.9,49.4,0,60.3,0,73.7c0,7.5,3.4,14.1,8.7,18.6c0,0,0,0,0,0c0,0,0.1,0.1,0.1,0.1
			c0.4,0.3,0.8,0.7,1.2,1c0.1,0.1,0.2,0.2,0.3,0.2c3.9,2.8,8.7,4.4,13.9,4.4c0.7,0,1.3,0,2-0.1c0.1,0,0.2,0,0.2,0
			c0.7-0.1,1.3-0.1,1.9-0.3c0.1,0,0.1,0,0.2,0c2.1-0.4,4-1,5.9-1.9c0,0,0.1,0,0.1-0.1c0.6-0.3,1.1-0.6,1.7-0.9
			c0.1-0.1,0.2-0.1,0.3-0.2c0.5-0.3,1-0.6,1.5-0.9c0.1-0.1,0.3-0.2,0.4-0.3c0.5-0.3,0.9-0.7,1.3-1c0,0,0.1-0.1,0.1-0.1c0,0,0,0,0,0
			c5.3-4.5,8.7-11.2,8.7-18.6C48.7,60.3,37.8,49.4,24.3,49.4z M39.4,90.9c-0.5-0.2-1-0.4-1.6-0.6c-3.9-1.4-5.8-2.6-6.6-4.4
			c7.3-1.8,8.1-6.3,8.1-6.5c0.1-0.3-0.1-0.6-0.3-0.7c-0.2-0.1-3.6-2.5-3.6-8.6c0-6.6-1.3-13.4-11-13.4c-9.7,0-11,6.8-11,13.4
			c0,6.1-3.5,8.5-3.6,8.6c-0.2,0.2-0.4,0.5-0.3,0.7c0,0.2,0.9,4.7,8.1,6.5c-0.8,1.7-2.7,3-6.6,4.4c-0.6,0.2-1.1,0.4-1.6,0.6
			c-4.8-4.2-7.8-10.4-7.8-17.2c0-12.6,10.3-22.9,22.9-22.9c12.6,0,22.9,10.3,22.9,22.9C47.2,80.6,44.2,86.7,39.4,90.9z"/>
	</g>
	<circle cx="51.4" cy="49" r="6.6"/>
	<g>
		<path class="st0" d="M51.4,34.4c5.8,0,10.7-4.1,11.9-9.6C59.7,23,55.7,22,51.4,22s-8.3,1-11.9,2.8C40.7,30.3,45.6,34.4,51.4,34.4z
			"/>
		<path class="st0" d="M75.2,61.5C71,57.8,64.7,57.3,60,60.8c-4.7,3.4-6.3,9.6-4,14.7C64.3,74.1,71.4,68.8,75.2,61.5z"/>
		<path class="st0" d="M65.3,44.5c1.8,5.5,7.2,8.9,12.8,8.4c0.2-1.3,0.3-2.6,0.3-3.9c0-7.3-2.9-13.9-7.7-18.8
			C65.8,33,63.5,38.9,65.3,44.5z"/>
	</g>
	<g>
		<path class="st1" d="M32.6,50.9c2.2-1.5,4-3.7,4.9-6.4c2.1-6.4-1.4-13.3-7.9-15.4c-6.4-2.1-13.3,1.4-15.4,7.9
			c-1.6,5,0.2,10.3,4.1,13.4c2-0.5,4-0.8,6.2-0.8C27.4,49.5,30.1,50,32.6,50.9z"/>
		<circle class="st1" cx="51.4" cy="22.2" r="12.2"/>
		<ellipse transform="matrix(0.809 -0.5878 0.5878 0.809 -28.7027 52.9692)" class="st1" cx="67.2" cy="70.7" rx="12.2" ry="12.2"/>
		<ellipse transform="matrix(0.9511 -0.309 0.309 0.9511 -8.8081 25.754)" class="st1" cx="76.9" cy="40.7" rx="12.2" ry="12.2"/>
		<path class="st0" d="M98.4,94.4c-6.7,0-12.2-5.5-12.2-12.2v-1.8c-1,1.1-2,2.1-3.1,3.1c0.7,7.8,7.2,14,15.2,14
			c0.9,0,1.6-0.7,1.6-1.6C100,95.1,99.3,94.4,98.4,94.4z"/>
		<linearGradient id="SVGID_1_" gradientUnits="userSpaceOnUse" x1="4.3749" y1="48.9667" x2="98.4324" y2="48.9667">
			<stop  offset="0" style="stop-color:#FDC805"/>
			<stop  offset="0.7054" style="stop-color:#EFAE03"/>
			<stop  offset="0.9135" style="stop-color:#E29301"/>
		</linearGradient>
		<path class="st2" d="M86.3,80.5c7.6-8.3,12.2-19.4,12.2-31.5c0-26-21.1-47-47-47S4.4,23,4.4,49c0,3.4,0.4,6.7,1,9.8
			c3.2-4.1,7.7-7.2,12.9-8.5c-3.9-3.1-5.7-8.4-4.1-13.4c2.1-6.4,9-9.9,15.4-7.9c6.4,2.1,9.9,9,7.9,15.4c-0.9,2.7-2.7,4.9-4.9,6.4
			c9.4,3.3,16.1,12.3,16.1,22.8c0,8.5-4.4,15.9-10.9,20.3c4.3,1.3,8.9,2,13.6,2c12.3,0,23.4-4.7,31.8-12.4
			C84.3,82.6,85.3,81.6,86.3,80.5z M39.2,22.2c0-6.8,5.5-12.2,12.2-12.2s12.2,5.5,12.2,12.2c0,6.8-5.5,12.2-12.2,12.2
			C44.7,34.4,39.2,28.9,39.2,22.2z M74.3,80.5c-5.5,4-13.1,2.8-17.1-2.7c-4-5.5-2.8-13.1,2.7-17.1c5.5-4,13.1-2.8,17.1,2.7
			C81,68.9,79.8,76.6,74.3,80.5z M80.7,52.3c-6.4,2.1-13.3-1.4-15.4-7.9c-2.1-6.4,1.4-13.3,7.9-15.4c6.4-2.1,13.3,1.4,15.4,7.9
			C90.6,43.3,87.1,50.2,80.7,52.3z"/>
	</g>
	<path class="st0" d="M24.4,49.5c3,0,5.8,0.5,8.4,1.5c2.2-1.5,3.9-3.7,4.8-6.4c1.8-5.6-0.6-11.6-5.4-14.4c-4.8,4.9-7.7,11.6-7.7,19
		C24.3,49.3,24.3,49.4,24.4,49.5C24.4,49.5,24.4,49.5,24.4,49.5z"/>
	<g>
		<path class="st0" d="M98.4,94.4c-6.7,0-12.2-5.5-12.2-12.2v-1.8c-1,1.1-2,2.1-3.1,3.1c0.7,7.8,7.2,14,15.2,14
			c0.9,0,1.6-0.7,1.6-1.6C100,95.1,99.3,94.4,98.4,94.4z"/>
	</g>
</g>
</svg>
