<svg id="Layer_1" xmlns="http://www.w3.org/2000/svg" xmlns:xlink="http://www.w3.org/1999/xlink" viewBox="0 0 100 100"><style>.st0{fill:#fff}.st1{clip-path:url(#SVGID_2_);fill:url(#SVGID_3_)}.st2{clip-path:url(#SVGID_5_);fill:url(#SVGID_6_)}</style><path class="st0" d="M71.5 40.1c-.6 0-1.1.5-1.1 1.1v.4h-6.6v2.3h3.5v6.2c0 9.5-7.8 17.3-17.3 17.3s-17.3-7.8-17.3-17.3v-6.2h3.5v-2.3h-6.6v-.4c0-.6-.5-1.1-1.1-1.1-.6 0-1.1.5-1.1 1.1v3.1c0 .6.5 1.1 1.1 1.1.6 0 1.1-.5 1.1-1.1v-.4h.8v6.2c0 10.4 8.2 18.9 18.4 19.5v8.1H34.6c-1.7 0-3.1 1.4-3.1 3.1v1.5h36.9v-1.5c0-1.7-1.4-3.1-3.1-3.1H51.1v-8.1c10.3-.6 18.4-9.1 18.4-19.5v-6.2h.8v.4c0 .6.5 1.1 1.1 1.1.6 0 1.1-.5 1.1-1.1v-3.1c.1-.6-.4-1.1-1-1.1"/><path class="st0" d="M38.6 27.1c0-6.3 5.1-11.4 11.4-11.4 6.3 0 11.4 5.1 11.4 11.4v13.4h1.7V27.1C63.1 19.9 57.2 14 50 14c-7.2 0-13.1 5.9-13.1 13.1v13.4h1.7V27.1z"/><defs><path id="SVGID_1_" d="M63.1 40.4H36.2v3.5h27.6v-3.5z"/></defs><clipPath id="SVGID_2_"><use xlink:href="#SVGID_1_" overflow="visible"/></clipPath><linearGradient id="SVGID_3_" gradientUnits="userSpaceOnUse" x1="-540.871" y1="467.275" x2="-540.015" y2="467.275" gradientTransform="matrix(32.2973 0 0 -32.2973 17504.838 15133.918)"><stop offset="0" stop-color="#fdc805"/><stop offset=".705" stop-color="#efae03"/><stop offset=".913" stop-color="#e29301"/><stop offset="1" stop-color="#e29301"/></linearGradient><path class="st1" d="M36.2 40.4h27.6v3.5H36.2z"/><defs><path id="SVGID_4_" d="M36.2 46.2v3.9c0 7.6 6.2 13.8 13.8 13.8 7.6 0 13.8-6.2 13.8-13.8v-3.9H36.2z"/></defs><clipPath id="SVGID_5_"><use xlink:href="#SVGID_4_" overflow="visible"/></clipPath><linearGradient id="SVGID_6_" gradientUnits="userSpaceOnUse" x1="-540.871" y1="467.342" x2="-540.015" y2="467.342" gradientTransform="matrix(32.2973 0 0 -32.2973 17504.838 15148.959)"><stop offset="0" stop-color="#fdc805"/><stop offset=".705" stop-color="#efae03"/><stop offset=".913" stop-color="#e29301"/><stop offset="1" stop-color="#e29301"/></linearGradient><path class="st2" d="M36.2 46.2h27.6V64H36.2z"/><path class="st0" d="M43.9 33.2c.6 0 1.1.5 1.1 1.1 0 .6-.5 1.1-1.1 1.1-.6 0-1.1-.5-1.1-1.1-.1-.6.4-1.1 1.1-1.1m6.1 0c.6 0 1.1.5 1.1 1.1 0 .6-.5 1.1-1.1 1.1-.6 0-1.1-.5-1.1-1.1 0-.6.5-1.1 1.1-1.1m6.1 0c.6 0 1.1.5 1.1 1.1 0 .6-.5 1.1-1.1 1.1-.6 0-1.1-.5-1.1-1.1 0-.6.5-1.1 1.1-1.1M43.9 27c.6 0 1.1.5 1.1 1.1 0 .6-.5 1.1-1.1 1.1-.6 0-1.1-.5-1.1-1.1-.1-.6.4-1.1 1.1-1.1m6.1 0c.6 0 1.1.5 1.1 1.1 0 .6-.5 1.1-1.1 1.1-.6 0-1.1-.5-1.1-1.1 0-.6.5-1.1 1.1-1.1m6.1 0c.6 0 1.1.5 1.1 1.1 0 .6-.5 1.1-1.1 1.1-.6 0-1.1-.5-1.1-1.1 0-.6.5-1.1 1.1-1.1m-11.9-6.2c.6 0 1.1.5 1.1 1.1 0 .6-.5 1.1-1.1 1.1-.6 0-1.1-.5-1.1-1.1 0-.6.5-1.1 1.1-1.1m5.8 0c.6 0 1.1.5 1.1 1.1 0 .6-.5 1.1-1.1 1.1-.6 0-1.1-.5-1.1-1.1 0-.6.5-1.1 1.1-1.1m5.9 0c.6 0 1.1.5 1.1 1.1 0 .6-.5 1.1-1.1 1.1-.6 0-1.1-.5-1.1-1.1 0-.6.5-1.1 1.1-1.1M36.2 43.9h27.6v3.3H36.2z"/></svg>