<svg id="Layer_1" xmlns="http://www.w3.org/2000/svg" viewBox="0 0 24.5 17"><style>.st0{stroke:url(#SVGID_1_)}.st0,.st1,.st2{fill:none;stroke-width:8;stroke-linecap:round;stroke-linejoin:round;stroke-miterlimit:10}.st1{stroke:#fff}.st2{stroke:url(#SVGID_2_)}.st3{fill:url(#SVGID_3_)}</style><linearGradient id="SVGID_1_" gradientUnits="userSpaceOnUse" x1="5.632" y1="11.732" x2="5.632" y2="11.732" gradientTransform="matrix(1 0 0 -1 0 18.063)"><stop offset="0" stop-color="#fdc805"/><stop offset=".705" stop-color="#efae03"/><stop offset=".913" stop-color="#e29301"/></linearGradient><linearGradient id="SVGID_2_" gradientUnits="userSpaceOnUse" x1="14.232" y1="12.032" x2="14.232" y2="12.032" gradientTransform="matrix(1 0 0 -1 0 18.063)"><stop offset="0" stop-color="#fdc805"/><stop offset=".705" stop-color="#efae03"/><stop offset=".913" stop-color="#e29301"/></linearGradient><linearGradient id="SVGID_3_" gradientUnits="userSpaceOnUse" x1="3.732" y1="9.582" x2="20.732" y2="9.582" gradientTransform="matrix(0 -1 -1 0 21.832 20.732)"><stop offset="0" stop-color="#fdc805"/><stop offset=".705" stop-color="#efae03"/><stop offset=".913" stop-color="#e29301"/></linearGradient><path class="st3" d="M15.8.3c-.5.5-.6 1.3-.1 1.8l4.6 5h-19C.6 7.1 0 7.7 0 8.4s.6 1.4 1.3 1.4h19l-4.6 5c-.5.5-.5 1.4.1 1.8.5.5 1.4.5 1.8-.1l6.6-7.2c.2-.2.3-.6.3-.9s-.1-.6-.3-.9L17.6.3c-.4-.4-1.3-.4-1.8 0z"/></svg>