<?xml version="1.0" encoding="utf-8"?>
<!-- Generator: Adobe Illustrator 21.1.0, SVG Export Plug-In . SVG Version: 6.00 Build 0)  -->
<svg version="1.1" id="Layer_1" xmlns="http://www.w3.org/2000/svg" xmlns:xlink="http://www.w3.org/1999/xlink" x="0px" y="0px"
	 viewBox="0 0 100 100" style="enable-background:new 0 0 100 100;" xml:space="preserve">
<style type="text/css">
	.st0{fill:#FFFFFF;}
	.st1{fill:#FFCC05;}
	.st2{clip-path:url(#SVGID_2_);fill:#FFFFFF;}
	.st3{clip-path:url(#SVGID_2_);fill:#FFFFFE;}
	.st4{clip-path:url(#SVGID_2_);fill:#FFFEFD;}
	.st5{clip-path:url(#SVGID_2_);fill:#FFFEFC;}
	.st6{clip-path:url(#SVGID_2_);fill:#FEFEFB;}
	.st7{clip-path:url(#SVGID_2_);fill:#FEFDFA;}
	.st8{clip-path:url(#SVGID_2_);fill:#FEFDF9;}
	.st9{clip-path:url(#SVGID_2_);fill:#FEFDF8;}
	.st10{clip-path:url(#SVGID_2_);fill:#FEFCF7;}
	.st11{clip-path:url(#SVGID_2_);fill:#FEFCF6;}
	.st12{clip-path:url(#SVGID_2_);fill:#FEFCF5;}
	.st13{clip-path:url(#SVGID_2_);fill:#FDFBF4;}
	.st14{clip-path:url(#SVGID_2_);fill:#FDFBF3;}
	.st15{clip-path:url(#SVGID_2_);fill:#FDFBF2;}
	.st16{clip-path:url(#SVGID_2_);fill:#FDFAF1;}
	.st17{clip-path:url(#SVGID_2_);fill:#FDFAF0;}
	.st18{clip-path:url(#SVGID_2_);fill:#FDF9EF;}
	.st19{clip-path:url(#SVGID_2_);fill:#FDF9EE;}
	.st20{clip-path:url(#SVGID_2_);fill:#FCF9ED;}
	.st21{clip-path:url(#SVGID_2_);fill:#FCF8EC;}
	.st22{clip-path:url(#SVGID_2_);fill:#FCF8EB;}
	.st23{clip-path:url(#SVGID_2_);fill:#FCF8EA;}
	.st24{clip-path:url(#SVGID_2_);fill:#FCF7E9;}
	.st25{clip-path:url(#SVGID_2_);fill:#FCF7E8;}
	.st26{clip-path:url(#SVGID_2_);fill:#FCF7E7;}
	.st27{clip-path:url(#SVGID_2_);fill:#FBF6E6;}
	.st28{clip-path:url(#SVGID_2_);fill:#FBF6E5;}
	.st29{clip-path:url(#SVGID_2_);fill:#FBF6E4;}
	.st30{clip-path:url(#SVGID_2_);fill:#FBF5E3;}
	.st31{clip-path:url(#SVGID_2_);fill:#FBF5E2;}
	.st32{clip-path:url(#SVGID_2_);fill:#FBF5E1;}
	.st33{clip-path:url(#SVGID_2_);fill:#FBF4E0;}
	.st34{clip-path:url(#SVGID_2_);fill:#FAF4DF;}
	.st35{clip-path:url(#SVGID_2_);fill:#FAF4DE;}
	.st36{clip-path:url(#SVGID_2_);fill:#FAF3DD;}
	.st37{clip-path:url(#SVGID_2_);fill:#FAF3DC;}
	.st38{clip-path:url(#SVGID_2_);fill:#FAF3DB;}
	.st39{clip-path:url(#SVGID_2_);fill:#FAF2DA;}
	.st40{clip-path:url(#SVGID_2_);fill:#FAF2D9;}
	.st41{clip-path:url(#SVGID_2_);fill:#F9F2D8;}
	.st42{clip-path:url(#SVGID_2_);fill:#F9F1D7;}
	.st43{clip-path:url(#SVGID_2_);fill:#F9F1D6;}
	.st44{clip-path:url(#SVGID_2_);fill:#F9F1D5;}
	.st45{clip-path:url(#SVGID_2_);fill:#F9F0D4;}
	.st46{clip-path:url(#SVGID_2_);fill:#F9F0D3;}
	.st47{clip-path:url(#SVGID_2_);fill:#F9F0D2;}
	.st48{clip-path:url(#SVGID_2_);fill:#F8EFD1;}
	.st49{clip-path:url(#SVGID_2_);fill:#F8EFD0;}
	.st50{clip-path:url(#SVGID_2_);fill:#F8EECF;}
	.st51{clip-path:url(#SVGID_2_);fill:#F8EECE;}
	.st52{clip-path:url(#SVGID_2_);fill:#F8EECD;}
	.st53{clip-path:url(#SVGID_2_);fill:#F8EDCC;}
	.st54{clip-path:url(#SVGID_2_);fill:#F8EDCB;}
	.st55{clip-path:url(#SVGID_2_);fill:#F7EDCA;}
	.st56{clip-path:url(#SVGID_2_);fill:#F7ECC9;}
	.st57{clip-path:url(#SVGID_2_);fill:#F7ECC8;}
	.st58{clip-path:url(#SVGID_2_);fill:#F7ECC7;}
	.st59{clip-path:url(#SVGID_2_);fill:#F7EBC6;}
	.st60{clip-path:url(#SVGID_2_);fill:#F7EBC5;}
	.st61{clip-path:url(#SVGID_2_);fill:#F7EBC4;}
	.st62{clip-path:url(#SVGID_2_);fill:#F6EAC3;}
	.st63{clip-path:url(#SVGID_2_);fill:#F6EAC2;}
	.st64{clip-path:url(#SVGID_2_);fill:#F6EAC1;}
	.st65{clip-path:url(#SVGID_2_);fill:#F6E9C0;}
	.st66{clip-path:url(#SVGID_2_);fill:#F6E9BF;}
	.st67{clip-path:url(#SVGID_2_);fill:#F6E9BE;}
	.st68{clip-path:url(#SVGID_2_);fill:#F6E8BD;}
	.st69{clip-path:url(#SVGID_2_);fill:#F5E8BC;}
	.st70{clip-path:url(#SVGID_2_);fill:#F5E8BB;}
	.st71{clip-path:url(#SVGID_2_);fill:#F5E7BA;}
	.st72{clip-path:url(#SVGID_2_);fill:#F5E7B9;}
	.st73{clip-path:url(#SVGID_2_);fill:#F5E7B8;}
	.st74{clip-path:url(#SVGID_2_);fill:#F5E6B7;}
	.st75{clip-path:url(#SVGID_2_);fill:#F5E6B6;}
	.st76{clip-path:url(#SVGID_2_);fill:#F4E6B5;}
	.st77{clip-path:url(#SVGID_2_);fill:#F4E5B4;}
	.st78{clip-path:url(#SVGID_2_);fill:#F4E5B3;}
	.st79{clip-path:url(#SVGID_2_);fill:#F4E5B2;}
	.st80{clip-path:url(#SVGID_2_);fill:#F4E4B1;}
	.st81{clip-path:url(#SVGID_2_);fill:#F4E4B0;}
	.st82{clip-path:url(#SVGID_2_);fill:#F4E3AF;}
	.st83{clip-path:url(#SVGID_2_);fill:#F3E3AE;}
	.st84{clip-path:url(#SVGID_2_);fill:#F3E3AD;}
	.st85{clip-path:url(#SVGID_2_);fill:#F3E2AC;}
	.st86{clip-path:url(#SVGID_2_);fill:#F3E2AB;}
	.st87{clip-path:url(#SVGID_2_);fill:#F3E2AA;}
	.st88{clip-path:url(#SVGID_2_);fill:#F3E1A9;}
	.st89{clip-path:url(#SVGID_2_);fill:#F3E1A8;}
	.st90{clip-path:url(#SVGID_2_);fill:#F2E1A7;}
	.st91{clip-path:url(#SVGID_2_);fill:#F2E0A6;}
	.st92{clip-path:url(#SVGID_2_);fill:#F2E0A5;}
	.st93{clip-path:url(#SVGID_2_);fill:#F2E0A4;}
	.st94{clip-path:url(#SVGID_2_);fill:#F2DFA3;}
	.st95{clip-path:url(#SVGID_2_);fill:#F2DFA2;}
	.st96{clip-path:url(#SVGID_2_);fill:#F2DFA1;}
	.st97{clip-path:url(#SVGID_2_);fill:#F1DEA0;}
	.st98{clip-path:url(#SVGID_2_);fill:#F1DE9F;}
	.st99{clip-path:url(#SVGID_2_);fill:#F1DE9E;}
	.st100{clip-path:url(#SVGID_2_);fill:#F1DD9D;}
	.st101{clip-path:url(#SVGID_2_);fill:#F1DD9C;}
	.st102{clip-path:url(#SVGID_2_);fill:#F1DD9B;}
	.st103{clip-path:url(#SVGID_2_);fill:#F1DC9A;}
	.st104{clip-path:url(#SVGID_2_);fill:#F0DC99;}
	.st105{clip-path:url(#SVGID_2_);fill:#F0DC98;}
	.st106{clip-path:url(#SVGID_2_);fill:#F0DB97;}
	.st107{clip-path:url(#SVGID_2_);fill:#F0DB96;}
	.st108{clip-path:url(#SVGID_2_);fill:#F0DB95;}
	.st109{clip-path:url(#SVGID_2_);fill:#F0DA94;}
	.st110{clip-path:url(#SVGID_2_);fill:#F0DA93;}
	.st111{clip-path:url(#SVGID_2_);fill:#F0DA92;}
	.st112{clip-path:url(#SVGID_2_);fill:#EFD990;}
	.st113{clip-path:url(#SVGID_2_);fill:#EFD98F;}
	.st114{clip-path:url(#SVGID_2_);fill:#EFD88E;}
	.st115{clip-path:url(#SVGID_2_);fill:#EFD88D;}
	.st116{clip-path:url(#SVGID_2_);fill:#EFD88C;}
	.st117{clip-path:url(#SVGID_2_);fill:#EFD78B;}
	.st118{clip-path:url(#SVGID_2_);fill:#EFD78A;}
	.st119{clip-path:url(#SVGID_2_);fill:#EED789;}
	.st120{clip-path:url(#SVGID_2_);fill:#EED688;}
	.st121{clip-path:url(#SVGID_2_);fill:#EED687;}
	.st122{clip-path:url(#SVGID_2_);fill:#EED686;}
	.st123{clip-path:url(#SVGID_2_);fill:#EED585;}
	.st124{clip-path:url(#SVGID_2_);fill:#EED584;}
	.st125{clip-path:url(#SVGID_2_);fill:#EED583;}
	.st126{clip-path:url(#SVGID_2_);fill:#EDD482;}
	.st127{clip-path:url(#SVGID_2_);fill:#EDD481;}
	.st128{clip-path:url(#SVGID_2_);fill:#EDD480;}
	.st129{clip-path:url(#SVGID_2_);fill:#EDD37F;}
	.st130{clip-path:url(#SVGID_2_);fill:#EDD37E;}
	.st131{clip-path:url(#SVGID_2_);fill:#EDD37D;}
	.st132{clip-path:url(#SVGID_2_);fill:#EDD27C;}
	.st133{clip-path:url(#SVGID_2_);fill:#ECD27B;}
	.st134{clip-path:url(#SVGID_2_);fill:#ECD27A;}
	.st135{clip-path:url(#SVGID_2_);fill:#ECD179;}
	.st136{clip-path:url(#SVGID_2_);fill:#ECD178;}
	.st137{clip-path:url(#SVGID_2_);fill:#ECD177;}
	.st138{clip-path:url(#SVGID_2_);fill:#ECD076;}
	.st139{clip-path:url(#SVGID_2_);fill:#ECD075;}
	.st140{clip-path:url(#SVGID_2_);fill:#EBD074;}
	.st141{clip-path:url(#SVGID_2_);fill:#EBCF73;}
	.st142{clip-path:url(#SVGID_2_);fill:#EBCF72;}
	.st143{clip-path:url(#SVGID_2_);fill:#EBCE71;}
	.st144{clip-path:url(#SVGID_2_);fill:#EBCE70;}
	.st145{clip-path:url(#SVGID_2_);fill:#EBCE6F;}
	.st146{clip-path:url(#SVGID_2_);fill:#EBCD6E;}
	.st147{clip-path:url(#SVGID_2_);fill:#EACD6D;}
	.st148{clip-path:url(#SVGID_2_);fill:#EACD6C;}
	.st149{clip-path:url(#SVGID_2_);fill:#EACC6B;}
	.st150{clip-path:url(#SVGID_2_);fill:#EACC6A;}
	.st151{clip-path:url(#SVGID_2_);fill:#EACC69;}
	.st152{clip-path:url(#SVGID_2_);fill:#EACB68;}
	.st153{clip-path:url(#SVGID_2_);fill:#EACB67;}
	.st154{clip-path:url(#SVGID_2_);fill:#E9CB66;}
	.st155{clip-path:url(#SVGID_2_);fill:#E9CA65;}
	.st156{clip-path:url(#SVGID_2_);fill:#E9CA64;}
	.st157{clip-path:url(#SVGID_2_);fill:#E9CA63;}
	.st158{clip-path:url(#SVGID_2_);fill:#E9C962;}
	.st159{clip-path:url(#SVGID_2_);fill:#E9C961;}
	.st160{clip-path:url(#SVGID_2_);fill:#E9C960;}
	.st161{clip-path:url(#SVGID_2_);fill:#E8C85F;}
	.st162{clip-path:url(#SVGID_2_);fill:#E8C85E;}
	.st163{clip-path:url(#SVGID_2_);fill:#E8C85D;}
	.st164{clip-path:url(#SVGID_2_);fill:#E8C75C;}
	.st165{clip-path:url(#SVGID_2_);fill:#E8C75B;}
	.st166{clip-path:url(#SVGID_2_);fill:#E8C75A;}
	.st167{clip-path:url(#SVGID_2_);fill:#E8C659;}
	.st168{clip-path:url(#SVGID_2_);fill:#E7C658;}
	.st169{clip-path:url(#SVGID_2_);fill:#E7C657;}
	.st170{clip-path:url(#SVGID_2_);fill:#E7C556;}
	.st171{clip-path:url(#SVGID_2_);fill:#E7C555;}
	.st172{clip-path:url(#SVGID_2_);fill:#E7C554;}
	.st173{clip-path:url(#SVGID_2_);fill:#E7C453;}
	.st174{clip-path:url(#SVGID_2_);fill:#E7C452;}
	.st175{clip-path:url(#SVGID_2_);fill:#E6C351;}
	.st176{clip-path:url(#SVGID_2_);fill:#E6C350;}
	.st177{clip-path:url(#SVGID_2_);fill:#E6C34F;}
	.st178{clip-path:url(#SVGID_2_);fill:#E6C24E;}
	.st179{clip-path:url(#SVGID_2_);fill:#E6C24D;}
	.st180{clip-path:url(#SVGID_2_);fill:#E6C24C;}
	.st181{clip-path:url(#SVGID_2_);fill:#E6C14B;}
	.st182{clip-path:url(#SVGID_2_);fill:#E5C14A;}
	.st183{clip-path:url(#SVGID_2_);fill:#E5C149;}
	.st184{clip-path:url(#SVGID_2_);fill:#E5C048;}
	.st185{clip-path:url(#SVGID_2_);fill:#E5C047;}
	.st186{clip-path:url(#SVGID_2_);fill:#E5C046;}
	.st187{clip-path:url(#SVGID_2_);fill:#E5BF45;}
	.st188{clip-path:url(#SVGID_2_);fill:#E5BF44;}
	.st189{clip-path:url(#SVGID_2_);fill:#E4BF43;}
	.st190{clip-path:url(#SVGID_2_);fill:#E4BE42;}
	.st191{clip-path:url(#SVGID_2_);fill:#E4BE41;}
	.st192{clip-path:url(#SVGID_2_);fill:#E4BE40;}
	.st193{clip-path:url(#SVGID_2_);fill:#E4BD3F;}
	.st194{clip-path:url(#SVGID_2_);fill:#E4BD3E;}
	.st195{clip-path:url(#SVGID_2_);fill:#E4BD3D;}
	.st196{clip-path:url(#SVGID_2_);fill:#E3BC3C;}
	.st197{clip-path:url(#SVGID_2_);fill:#E3BC3B;}
	.st198{clip-path:url(#SVGID_2_);fill:#E3BC3A;}
	.st199{clip-path:url(#SVGID_2_);fill:#E3BB39;}
	.st200{clip-path:url(#SVGID_2_);fill:#E3BB38;}
	.st201{clip-path:url(#SVGID_2_);fill:#E3BB37;}
	.st202{clip-path:url(#SVGID_2_);fill:#E3BA36;}
	.st203{clip-path:url(#SVGID_2_);fill:#E2BA35;}
	.st204{clip-path:url(#SVGID_2_);fill:#E2BA34;}
	.st205{clip-path:url(#SVGID_2_);fill:#E2B933;}
	.st206{clip-path:url(#SVGID_2_);fill:#E2B932;}
	.st207{clip-path:url(#SVGID_2_);fill:#E2B831;}
	.st208{clip-path:url(#SVGID_2_);fill:#E2B830;}
	.st209{clip-path:url(#SVGID_2_);fill:#E2B82F;}
	.st210{clip-path:url(#SVGID_2_);fill:#E1B72E;}
	.st211{clip-path:url(#SVGID_2_);fill:#E1B72D;}
	.st212{clip-path:url(#SVGID_2_);fill:#E1B72C;}
	.st213{clip-path:url(#SVGID_2_);fill:#E1B62B;}
	.st214{clip-path:url(#SVGID_2_);fill:#E1B62A;}
	.st215{clip-path:url(#SVGID_2_);fill:#E1B629;}
	.st216{clip-path:url(#SVGID_2_);fill:#E1B528;}
	.st217{clip-path:url(#SVGID_2_);fill:#E0B527;}
	.st218{clip-path:url(#SVGID_2_);fill:#E0B526;}
	.st219{clip-path:url(#SVGID_2_);fill:#E0B425;}
	.st220{clip-path:url(#SVGID_2_);fill:#E0B424;}
	.st221{fill:none;}
</style>
<g>
	<g>
		<rect x="48.354" y="79.8" class="st0" width="3.292" height="15.659"/>
	</g>
	<g>
		<path class="st0" d="M50,81.447c-15.758,0-28.577-12.82-28.577-28.578V42.097h3.292V52.87c0,13.943,11.343,25.286,25.286,25.286
			S75.286,66.812,75.286,52.87V42.097h3.292V52.87C78.577,68.627,65.758,81.447,50,81.447z"/>
	</g>
	<g>
		<rect x="18.58" y="40.452" class="st0" width="62.84" height="3.292"/>
	</g>
	<g>
		<g>
			<path class="st0" d="M18.58,45.987c-0.909,0-1.646-0.737-1.646-1.646v-4.489c0-0.909,0.737-1.646,1.646-1.646
				c0.909,0,1.646,0.737,1.646,1.646v4.489C20.226,45.25,19.489,45.987,18.58,45.987z"/>
		</g>
		<g>
			<path class="st0" d="M81.42,45.987c-0.909,0-1.646-0.737-1.646-1.646v-4.489c0-0.909,0.737-1.646,1.646-1.646
				c0.909,0,1.646,0.737,1.646,1.646v4.489C83.066,45.25,82.329,45.987,81.42,45.987z"/>
		</g>
	</g>
	<g>
		<g>
			<path class="st0" d="M69.205,44.37h-38.41V19.205C30.795,8.616,39.411,0,50,0s19.205,8.616,19.205,19.205V44.37z M33.297,41.869
				h33.407V19.205c0-9.211-7.493-16.704-16.703-16.704S33.297,9.995,33.297,19.205V41.869z"/>
		</g>
	</g>
	<g>
		<path class="st0" d="M76.932,100H23.068v-2.244c0-2.469,2.02-4.489,4.489-4.489h44.886c2.469,0,4.489,2.02,4.489,4.489L76.932,100
			L76.932,100z"/>
	</g>
	<g>
		<path class="st1" d="M29.801,38.731v5.087l2.194,1.646l-2.194,1.646v5.76c0,11.138,9.061,20.199,20.199,20.199
			s20.199-9.061,20.199-20.199v-5.76l-2.194-1.646l2.194-1.646v-5.087H29.801L29.801,38.731z"/>
	</g>
	<g>
		<g>
			<defs>
				<path id="SVGID_1_" d="M29.801,38.731v5.087l2.194,1.646l-2.194,1.646v5.76c0,11.138,9.061,20.199,20.199,20.199
					s20.199-9.061,20.199-20.199v-5.76l-2.194-1.646l2.194-1.646v-5.087H29.801L29.801,38.731z"/>
			</defs>
			<clipPath id="SVGID_2_">
				<use xlink:href="#SVGID_1_"  style="overflow:visible;"/>
			</clipPath>
			<path class="st2" d="M29.801,38.731v34.338V38.731z"/>
			<rect x="29.801" y="38.731" class="st2" width="0.184" height="34.338"/>
			<rect x="29.986" y="38.731" class="st3" width="0.184" height="34.338"/>
			<rect x="30.17" y="38.731" class="st4" width="0.184" height="34.338"/>
			<rect x="30.355" y="38.731" class="st5" width="0.184" height="34.338"/>
			<rect x="30.539" y="38.731" class="st6" width="0.184" height="34.338"/>
			<rect x="30.724" y="38.731" class="st7" width="0.184" height="34.338"/>
			<rect x="30.908" y="38.731" class="st8" width="0.184" height="34.338"/>
			<rect x="31.093" y="38.731" class="st9" width="0.184" height="34.338"/>
			<rect x="31.277" y="38.731" class="st10" width="0.184" height="34.338"/>
			<rect x="31.462" y="38.731" class="st11" width="0.184" height="34.338"/>
			<rect x="31.646" y="38.731" class="st12" width="0.184" height="34.338"/>
			<rect x="31.83" y="38.731" class="st13" width="0.184" height="34.338"/>
			<rect x="32.015" y="38.731" class="st14" width="0.184" height="34.338"/>
			<rect x="32.199" y="38.731" class="st15" width="0.184" height="34.338"/>
			<rect x="32.384" y="38.731" class="st16" width="0.184" height="34.338"/>
			<rect x="32.568" y="38.731" class="st17" width="0.184" height="34.338"/>
			<rect x="32.753" y="38.731" class="st18" width="0.184" height="34.338"/>
			<rect x="32.937" y="38.731" class="st19" width="0.184" height="34.338"/>
			<rect x="33.122" y="38.731" class="st20" width="0.184" height="34.338"/>
			<rect x="33.306" y="38.731" class="st21" width="0.184" height="34.338"/>
			<rect x="33.491" y="38.731" class="st22" width="0.184" height="34.338"/>
			<rect x="33.675" y="38.731" class="st23" width="0.184" height="34.338"/>
			<rect x="33.86" y="38.731" class="st24" width="0.184" height="34.338"/>
			<rect x="34.044" y="38.731" class="st25" width="0.184" height="34.338"/>
			<rect x="34.228" y="38.731" class="st26" width="0.184" height="34.338"/>
			<rect x="34.413" y="38.731" class="st27" width="0.184" height="34.338"/>
			<rect x="34.597" y="38.731" class="st28" width="0.184" height="34.338"/>
			<rect x="34.782" y="38.731" class="st29" width="0.184" height="34.338"/>
			<rect x="34.966" y="38.731" class="st30" width="0.184" height="34.338"/>
			<rect x="35.151" y="38.731" class="st31" width="0.184" height="34.338"/>
			<rect x="35.335" y="38.731" class="st32" width="0.184" height="34.338"/>
			<rect x="35.52" y="38.731" class="st33" width="0.184" height="34.338"/>
			<rect x="35.704" y="38.731" class="st34" width="0.184" height="34.338"/>
			<rect x="35.889" y="38.731" class="st35" width="0.184" height="34.338"/>
			<rect x="36.073" y="38.731" class="st36" width="0.184" height="34.338"/>
			<rect x="36.258" y="38.731" class="st37" width="0.184" height="34.338"/>
			<rect x="36.442" y="38.731" class="st38" width="0.184" height="34.338"/>
			<rect x="36.626" y="38.731" class="st39" width="0.184" height="34.338"/>
			<rect x="36.811" y="38.731" class="st40" width="0.184" height="34.338"/>
			<rect x="36.995" y="38.731" class="st41" width="0.184" height="34.338"/>
			<rect x="37.18" y="38.731" class="st42" width="0.184" height="34.338"/>
			<rect x="37.364" y="38.731" class="st43" width="0.184" height="34.338"/>
			<rect x="37.549" y="38.731" class="st44" width="0.184" height="34.338"/>
			<rect x="37.733" y="38.731" class="st45" width="0.184" height="34.338"/>
			<rect x="37.918" y="38.731" class="st46" width="0.184" height="34.338"/>
			<rect x="38.102" y="38.731" class="st47" width="0.184" height="34.338"/>
			<rect x="38.287" y="38.731" class="st48" width="0.184" height="34.338"/>
			<rect x="38.471" y="38.731" class="st49" width="0.184" height="34.338"/>
			<rect x="38.656" y="38.731" class="st50" width="0.184" height="34.338"/>
			<rect x="38.84" y="38.731" class="st51" width="0.184" height="34.338"/>
			<rect x="39.025" y="38.731" class="st52" width="0.184" height="34.338"/>
			<rect x="39.209" y="38.731" class="st53" width="0.184" height="34.338"/>
			<rect x="39.393" y="38.731" class="st54" width="0.184" height="34.338"/>
			<rect x="39.578" y="38.731" class="st55" width="0.184" height="34.338"/>
			<rect x="39.762" y="38.731" class="st56" width="0.184" height="34.338"/>
			<rect x="39.947" y="38.731" class="st57" width="0.184" height="34.338"/>
			<rect x="40.131" y="38.731" class="st58" width="0.184" height="34.338"/>
			<rect x="40.316" y="38.731" class="st59" width="0.184" height="34.338"/>
			<rect x="40.5" y="38.731" class="st60" width="0.184" height="34.338"/>
			<rect x="40.685" y="38.731" class="st61" width="0.184" height="34.338"/>
			<rect x="40.869" y="38.731" class="st62" width="0.184" height="34.338"/>
			<rect x="41.054" y="38.731" class="st63" width="0.184" height="34.338"/>
			<rect x="41.238" y="38.731" class="st64" width="0.184" height="34.338"/>
			<rect x="41.423" y="38.731" class="st65" width="0.184" height="34.338"/>
			<rect x="41.607" y="38.731" class="st66" width="0.184" height="34.338"/>
			<rect x="41.791" y="38.731" class="st67" width="0.184" height="34.338"/>
			<rect x="41.976" y="38.731" class="st68" width="0.184" height="34.338"/>
			<rect x="42.16" y="38.731" class="st69" width="0.184" height="34.338"/>
			<rect x="42.345" y="38.731" class="st70" width="0.184" height="34.338"/>
			<rect x="42.529" y="38.731" class="st71" width="0.184" height="34.338"/>
			<rect x="42.714" y="38.731" class="st72" width="0.184" height="34.338"/>
			<rect x="42.898" y="38.731" class="st73" width="0.184" height="34.338"/>
			<rect x="43.083" y="38.731" class="st74" width="0.184" height="34.338"/>
			<rect x="43.267" y="38.731" class="st75" width="0.184" height="34.338"/>
			<rect x="43.452" y="38.731" class="st76" width="0.184" height="34.338"/>
			<rect x="43.636" y="38.731" class="st77" width="0.184" height="34.338"/>
			<rect x="43.821" y="38.731" class="st78" width="0.184" height="34.338"/>
			<rect x="44.005" y="38.731" class="st79" width="0.184" height="34.338"/>
			<rect x="44.189" y="38.731" class="st80" width="0.184" height="34.338"/>
			<rect x="44.374" y="38.731" class="st81" width="0.184" height="34.338"/>
			<rect x="44.558" y="38.731" class="st82" width="0.184" height="34.338"/>
			<rect x="44.743" y="38.731" class="st83" width="0.184" height="34.338"/>
			<rect x="44.927" y="38.731" class="st84" width="0.184" height="34.338"/>
			<rect x="45.112" y="38.731" class="st85" width="0.184" height="34.338"/>
			<rect x="45.296" y="38.731" class="st86" width="0.184" height="34.338"/>
			<rect x="45.481" y="38.731" class="st87" width="0.184" height="34.338"/>
			<rect x="45.665" y="38.731" class="st88" width="0.184" height="34.338"/>
			<rect x="45.85" y="38.731" class="st89" width="0.184" height="34.338"/>
			<rect x="46.034" y="38.731" class="st90" width="0.184" height="34.338"/>
			<rect x="46.219" y="38.731" class="st91" width="0.184" height="34.338"/>
			<rect x="46.403" y="38.731" class="st92" width="0.184" height="34.338"/>
			<rect x="46.587" y="38.731" class="st93" width="0.184" height="34.338"/>
			<rect x="46.772" y="38.731" class="st94" width="0.184" height="34.338"/>
			<rect x="46.956" y="38.731" class="st95" width="0.184" height="34.338"/>
			<rect x="47.141" y="38.731" class="st96" width="0.184" height="34.338"/>
			<rect x="47.325" y="38.731" class="st97" width="0.184" height="34.338"/>
			<rect x="47.51" y="38.731" class="st98" width="0.184" height="34.338"/>
			<rect x="47.694" y="38.731" class="st99" width="0.184" height="34.338"/>
			<rect x="47.879" y="38.731" class="st100" width="0.184" height="34.338"/>
			<rect x="48.063" y="38.731" class="st101" width="0.184" height="34.338"/>
			<rect x="48.248" y="38.731" class="st102" width="0.184" height="34.338"/>
			<rect x="48.432" y="38.731" class="st103" width="0.184" height="34.338"/>
			<rect x="48.617" y="38.731" class="st104" width="0.184" height="34.338"/>
			<rect x="48.801" y="38.731" class="st105" width="0.184" height="34.338"/>
			<rect x="48.985" y="38.731" class="st106" width="0.184" height="34.338"/>
			<rect x="49.17" y="38.731" class="st107" width="0.184" height="34.338"/>
			<rect x="49.354" y="38.731" class="st108" width="0.184" height="34.338"/>
			<rect x="49.539" y="38.731" class="st109" width="0.184" height="34.338"/>
			<rect x="49.723" y="38.731" class="st110" width="0.184" height="34.338"/>
			<rect x="49.908" y="38.731" class="st111" width="0.184" height="34.338"/>
			<rect x="50.092" y="38.731" class="st112" width="0.184" height="34.338"/>
			<rect x="50.277" y="38.731" class="st113" width="0.184" height="34.338"/>
			<rect x="50.461" y="38.731" class="st114" width="0.184" height="34.338"/>
			<rect x="50.646" y="38.731" class="st115" width="0.184" height="34.338"/>
			<rect x="50.83" y="38.731" class="st116" width="0.184" height="34.338"/>
			<rect x="51.015" y="38.731" class="st117" width="0.184" height="34.338"/>
			<rect x="51.199" y="38.731" class="st118" width="0.184" height="34.338"/>
			<rect x="51.383" y="38.731" class="st119" width="0.184" height="34.338"/>
			<rect x="51.568" y="38.731" class="st120" width="0.184" height="34.338"/>
			<rect x="51.752" y="38.731" class="st121" width="0.184" height="34.338"/>
			<rect x="51.937" y="38.731" class="st122" width="0.184" height="34.338"/>
			<rect x="52.121" y="38.731" class="st123" width="0.184" height="34.338"/>
			<rect x="52.306" y="38.731" class="st124" width="0.184" height="34.338"/>
			<rect x="52.49" y="38.731" class="st125" width="0.184" height="34.338"/>
			<rect x="52.675" y="38.731" class="st126" width="0.184" height="34.338"/>
			<rect x="52.859" y="38.731" class="st127" width="0.184" height="34.338"/>
			<rect x="53.044" y="38.731" class="st128" width="0.184" height="34.338"/>
			<rect x="53.228" y="38.731" class="st129" width="0.184" height="34.338"/>
			<rect x="53.413" y="38.731" class="st130" width="0.184" height="34.338"/>
			<rect x="53.597" y="38.731" class="st131" width="0.184" height="34.338"/>
			<rect x="53.781" y="38.731" class="st132" width="0.184" height="34.338"/>
			<rect x="53.966" y="38.731" class="st133" width="0.184" height="34.338"/>
			<rect x="54.15" y="38.731" class="st134" width="0.184" height="34.338"/>
			<rect x="54.335" y="38.731" class="st135" width="0.184" height="34.338"/>
			<rect x="54.519" y="38.731" class="st136" width="0.184" height="34.338"/>
			<rect x="54.704" y="38.731" class="st137" width="0.184" height="34.338"/>
			<rect x="54.888" y="38.731" class="st138" width="0.184" height="34.338"/>
			<rect x="55.073" y="38.731" class="st139" width="0.184" height="34.338"/>
			<rect x="55.257" y="38.731" class="st140" width="0.184" height="34.338"/>
			<rect x="55.442" y="38.731" class="st141" width="0.184" height="34.338"/>
			<rect x="55.626" y="38.731" class="st142" width="0.184" height="34.338"/>
			<rect x="55.811" y="38.731" class="st143" width="0.184" height="34.338"/>
			<rect x="55.995" y="38.731" class="st144" width="0.184" height="34.338"/>
			<rect x="56.179" y="38.731" class="st145" width="0.184" height="34.338"/>
			<rect x="56.364" y="38.731" class="st146" width="0.184" height="34.338"/>
			<rect x="56.548" y="38.731" class="st147" width="0.184" height="34.338"/>
			<rect x="56.733" y="38.731" class="st148" width="0.184" height="34.338"/>
			<rect x="56.917" y="38.731" class="st149" width="0.184" height="34.338"/>
			<rect x="57.102" y="38.731" class="st150" width="0.184" height="34.338"/>
			<rect x="57.286" y="38.731" class="st151" width="0.184" height="34.338"/>
			<rect x="57.471" y="38.731" class="st152" width="0.184" height="34.338"/>
			<rect x="57.655" y="38.731" class="st153" width="0.184" height="34.338"/>
			<rect x="57.84" y="38.731" class="st154" width="0.184" height="34.338"/>
			<rect x="58.024" y="38.731" class="st155" width="0.184" height="34.338"/>
			<rect x="58.209" y="38.731" class="st156" width="0.184" height="34.338"/>
			<rect x="58.393" y="38.731" class="st157" width="0.184" height="34.338"/>
			<rect x="58.577" y="38.731" class="st158" width="0.184" height="34.338"/>
			<rect x="58.762" y="38.731" class="st159" width="0.184" height="34.338"/>
			<rect x="58.946" y="38.731" class="st160" width="0.184" height="34.338"/>
			<rect x="59.131" y="38.731" class="st161" width="0.184" height="34.338"/>
			<rect x="59.315" y="38.731" class="st162" width="0.184" height="34.338"/>
			<rect x="59.5" y="38.731" class="st163" width="0.184" height="34.338"/>
			<rect x="59.684" y="38.731" class="st164" width="0.184" height="34.338"/>
			<rect x="59.869" y="38.731" class="st165" width="0.184" height="34.338"/>
			<rect x="60.053" y="38.731" class="st166" width="0.184" height="34.338"/>
			<rect x="60.238" y="38.731" class="st167" width="0.184" height="34.338"/>
			<rect x="60.422" y="38.731" class="st168" width="0.184" height="34.338"/>
			<rect x="60.607" y="38.731" class="st169" width="0.184" height="34.338"/>
			<rect x="60.791" y="38.731" class="st170" width="0.184" height="34.338"/>
			<rect x="60.975" y="38.731" class="st171" width="0.184" height="34.338"/>
			<rect x="61.16" y="38.731" class="st172" width="0.184" height="34.338"/>
			<rect x="61.344" y="38.731" class="st173" width="0.184" height="34.338"/>
			<rect x="61.529" y="38.731" class="st174" width="0.184" height="34.338"/>
			<rect x="61.713" y="38.731" class="st175" width="0.184" height="34.338"/>
			<rect x="61.898" y="38.731" class="st176" width="0.184" height="34.338"/>
			<rect x="62.082" y="38.731" class="st177" width="0.184" height="34.338"/>
			<rect x="62.267" y="38.731" class="st178" width="0.184" height="34.338"/>
			<rect x="62.451" y="38.731" class="st179" width="0.184" height="34.338"/>
			<rect x="62.636" y="38.731" class="st180" width="0.184" height="34.338"/>
			<rect x="62.82" y="38.731" class="st181" width="0.184" height="34.338"/>
			<rect x="63.005" y="38.731" class="st182" width="0.184" height="34.338"/>
			<rect x="63.189" y="38.731" class="st183" width="0.184" height="34.338"/>
			<rect x="63.374" y="38.731" class="st184" width="0.184" height="34.338"/>
			<rect x="63.558" y="38.731" class="st185" width="0.184" height="34.338"/>
			<rect x="63.742" y="38.731" class="st186" width="0.184" height="34.338"/>
			<rect x="63.927" y="38.731" class="st187" width="0.184" height="34.338"/>
			<rect x="64.111" y="38.731" class="st188" width="0.184" height="34.338"/>
			<rect x="64.296" y="38.731" class="st189" width="0.184" height="34.338"/>
			<rect x="64.48" y="38.731" class="st190" width="0.184" height="34.338"/>
			<rect x="64.665" y="38.731" class="st191" width="0.184" height="34.338"/>
			<rect x="64.849" y="38.731" class="st192" width="0.184" height="34.338"/>
			<rect x="65.034" y="38.731" class="st193" width="0.184" height="34.338"/>
			<rect x="65.218" y="38.731" class="st194" width="0.184" height="34.338"/>
			<rect x="65.403" y="38.731" class="st195" width="0.184" height="34.338"/>
			<rect x="65.587" y="38.731" class="st196" width="0.184" height="34.338"/>
			<rect x="65.772" y="38.731" class="st197" width="0.184" height="34.338"/>
			<rect x="65.956" y="38.731" class="st198" width="0.184" height="34.338"/>
			<rect x="66.14" y="38.731" class="st199" width="0.184" height="34.338"/>
			<rect x="66.325" y="38.731" class="st200" width="0.184" height="34.338"/>
			<rect x="66.509" y="38.731" class="st201" width="0.184" height="34.338"/>
			<rect x="66.694" y="38.731" class="st202" width="0.184" height="34.338"/>
			<rect x="66.878" y="38.731" class="st203" width="0.184" height="34.338"/>
			<rect x="67.063" y="38.731" class="st204" width="0.184" height="34.338"/>
			<rect x="67.247" y="38.731" class="st205" width="0.184" height="34.338"/>
			<rect x="67.432" y="38.731" class="st206" width="0.184" height="34.338"/>
			<rect x="67.616" y="38.731" class="st207" width="0.184" height="34.338"/>
			<rect x="67.801" y="38.731" class="st208" width="0.184" height="34.338"/>
			<rect x="67.985" y="38.731" class="st209" width="0.184" height="34.338"/>
			<rect x="68.17" y="38.731" class="st210" width="0.184" height="34.338"/>
			<rect x="68.354" y="38.731" class="st211" width="0.184" height="34.338"/>
			<rect x="68.538" y="38.731" class="st212" width="0.184" height="34.338"/>
			<rect x="68.723" y="38.731" class="st213" width="0.184" height="34.338"/>
			<rect x="68.907" y="38.731" class="st214" width="0.184" height="34.338"/>
			<rect x="69.092" y="38.731" class="st215" width="0.184" height="34.338"/>
			<rect x="69.276" y="38.731" class="st216" width="0.184" height="34.338"/>
			<rect x="69.461" y="38.731" class="st217" width="0.184" height="34.338"/>
			<rect x="69.645" y="38.731" class="st218" width="0.184" height="34.338"/>
			<rect x="69.83" y="38.731" class="st219" width="0.184" height="34.338"/>
			<rect x="70.014" y="38.731" class="st220" width="0.184" height="34.338"/>
			<path class="st220" d="M70.199,73.068V38.731V73.068z"/>
		</g>
	</g>
	<g>
		<line class="st221" x1="70.2" y1="45.464" x2="29.802" y2="45.464"/>
	</g>
	<g>
		<rect x="29.802" y="43.818" class="st0" width="40.397" height="3.292"/>
	</g>
	<g>
		<g>
			<circle class="st0" cx="41.023" cy="29.754" r="1.646"/>
		</g>
		<g>
			<circle class="st0" cx="50" cy="29.754" r="1.646"/>
		</g>
		<g>
			<circle class="st0" cx="58.977" cy="29.754" r="1.646"/>
		</g>
		<g>
			<circle class="st0" cx="41.023" cy="20.665" r="1.646"/>
		</g>
		<g>
			<circle class="st0" cx="50" cy="20.665" r="1.646"/>
		</g>
		<g>
			<circle class="st0" cx="58.977" cy="20.665" r="1.646"/>
		</g>
		<g>
			<circle class="st0" cx="41.578" cy="11.687" r="1.646"/>
		</g>
		<g>
			<circle class="st0" cx="50" cy="11.687" r="1.646"/>
		</g>
		<g>
			<circle class="st0" cx="58.639" cy="11.687" r="1.646"/>
		</g>
	</g>
</g>
</svg>
