<svg id="Layer_1" xmlns="http://www.w3.org/2000/svg" xmlns:xlink="http://www.w3.org/1999/xlink" viewBox="0 0 100 100"><style>.st0{clip-path:url(#SVGID_2_);fill:url(#SVGID_3_)}.st1{fill:#fff}</style><defs><path id="SVGID_1_" d="M54.8 68.9c-2.7-3.7-1.9-8.9 1.8-11.6 3.7-2.7 8.9-1.9 11.6 1.8 2.7 3.7 1.9 8.9-1.8 11.6a8.2 8.2 0 0 1-4.9 1.6c-2.5.1-5-1.1-6.7-3.4m5.5-22.6c-1.4-4.4 1-9 5.3-10.5 4.4-1.4 9 1 10.5 5.3 1.4 4.4-1 9-5.3 10.5-.9.3-1.8.4-2.6.4-3.5 0-6.8-2.2-7.9-5.7M42.6 31.1c0-4.6 3.7-8.3 8.3-8.3 4.6 0 8.3 3.7 8.3 8.3 0 4.6-3.7 8.3-8.3 8.3-4.6 0-8.3-3.7-8.3-8.3M18.9 49.3c0 2.3.2 4.5.7 6.7 2.2-2.8 5.2-4.9 8.8-5.8-2.6-2.1-3.9-5.7-2.8-9.1 1.4-4.4 6.1-6.7 10.5-5.3 4.4 1.4 6.7 6.1 5.3 10.5-.6 1.9-1.8 3.4-3.3 4.4C44.5 53 49 59.1 49 66.2 49 72 46 77 41.6 80c2.9.9 6 1.4 9.2 1.4 8.3 0 15.9-3.2 21.6-8.4l2.1-2.1c5.1-5.7 8.3-13.2 8.3-21.4 0-17.6-14.3-31.9-31.9-31.9-17.7-.2-32 14.1-32 31.7"/></defs><clipPath id="SVGID_2_"><use xlink:href="#SVGID_1_" overflow="visible"/></clipPath><linearGradient id="SVGID_3_" gradientUnits="userSpaceOnUse" x1="-540.343" y1="468.88" x2="-539.634" y2="468.88" gradientTransform="matrix(90.0353 0 0 -90.0353 48668.918 42265.055)"><stop offset="0" stop-color="#fdc805"/><stop offset=".705" stop-color="#efae03"/><stop offset=".913" stop-color="#e29301"/><stop offset="1" stop-color="#e29301"/></linearGradient><path class="st0" d="M18.9 17.4h63.9v63.9H18.9z"/><path d="M50.9 44.9c2.5 0 4.5 2 4.5 4.5s-2 4.5-4.5 4.5-4.5-2-4.5-4.5 2-4.5 4.5-4.5"/><path class="st1" d="M50.9 39.4c4 0 7.3-2.8 8.1-6.5a18.225 18.225 0 0 0-16.2 0c.8 3.8 4.1 6.5 8.1 6.5M67 57.8c-2.9-2.5-7.2-2.8-10.4-.5s-4.2 6.5-2.7 10c5.7-.9 10.5-4.5 13.1-9.5m-6.7-11.5c1.2 3.8 4.9 6.1 8.7 5.7.1-.9.2-1.7.2-2.6 0-5-2-9.5-5.2-12.8-3.3 1.9-4.9 5.9-3.7 9.7m22.5 33.9c-4.6 0-8.3-3.7-8.3-8.3v-1.2l-2.1 2.1c.5 5.3 4.9 9.5 10.3 9.5.6 0 1.1-.5 1.1-1.1.1-.5-.4-1-1-1M32.5 49.7c2 0 3.9.4 5.7 1 1.5-1 2.6-2.5 3.2-4.3 1.2-3.8-.4-7.8-3.7-9.8-3.2 3.3-5.2 7.9-5.2 12.9v.2z"/><path class="st1" d="M32.6 49.7c-9.1 0-16.5 7.4-16.5 16.5 0 8.1 5.9 14.8 13.6 16.2.8.2 1.6.3 2.4.2H34c.4 0 .7-.1 1.1-.1h.1c.3-.1.7-.1 1-.2.1 0 .2 0 .3-.1.4-.1.7-.2 1.1-.3.1 0 .1 0 .2-.1l.9-.3c.1 0 .1 0 .2-.1.4-.1.7-.3 1-.5 0 0 .1 0 .1-.1.7-.4 1.4-.8 2.1-1.3 4.2-3 6.9-7.9 6.9-13.4.1-9-7.3-16.4-16.4-16.4m9.2 28.9c-3.9-1.5-4.6-2.7-4.6-5.1 0-.6.1-.8.4-1.2.3-.5.8-1.2 1.1-2.9 0-.3.1-.3.3-.4.6-.3 1.2-.7 1.3-2.7 0-.9-.3-1.4-.6-1.7.2-1.2.7-5.6-1-7.5-.6-.7-1.4-1.1-2.1-1.3l-.1-.1-.2.1c-.3-.1-.6-.1-.8-.1-.9-.9-3.6-1.6-7-.3-2.2.9-3.2 2.4-3.5 4v.1c-.2 1.2-.1 2.5.1 3.6.1.6.2 1.2.2 1.5-.3.3-.5.7-.6 1.6v.1c.1 1.9.7 2.3 1.3 2.6.2.1.3.1.3.4.3 1.8.8 2.4 1.1 2.9.3.4.4.6.4 1.2 0 2.3-.6 3.6-4.6 5.1-3.8-2.8-6.3-7.3-6.3-12.4 0-8.5 6.9-15.5 15.5-15.5 8.5 0 15.5 6.9 15.5 15.5.2 5.1-2.3 9.7-6.1 12.5"/><circle class="st1" cx="32.6" cy="66.1" r="17.2"/><path d="M32.6 50.7c-8.5 0-15.5 6.9-15.5 15.5 0 5.1 2.5 9.6 6.3 12.4 3.9-1.5 4.6-2.7 4.6-5.1 0-.6-.1-.8-.4-1.2-.3-.5-.8-1.2-1.1-2.9 0-.3-.1-.3-.3-.4-.6-.3-1.2-.7-1.3-2.6v-.1c0-.9.3-1.3.6-1.6-.1-.3-.2-.9-.2-1.5-.2-1.2-.3-2.4-.1-3.6v-.1c.3-1.6 1.3-3.1 3.5-4 3.4-1.4 6.1-.6 7 .3.2 0 .5 0 .8.1l.2-.1.1.1c.7.2 1.5.5 2.1 1.3 1.7 1.9 1.1 6.3 1 7.5.3.3.6.8.6 1.7-.1 1.9-.7 2.4-1.3 2.7-.2.1-.3.1-.3.4-.3 1.8-.8 2.4-1.1 2.9-.3.4-.4.6-.4 1.2 0 2.3.6 3.6 4.6 5.1 3.8-2.8 6.3-7.3 6.3-12.4-.2-8.7-7.2-15.6-15.7-15.6"/></svg>