<?xml version="1.0" encoding="utf-8"?>
<!-- Generator: Adobe Illustrator 21.1.0, SVG Export Plug-In . SVG Version: 6.00 Build 0)  -->
<svg version="1.1" id="Layer_1" xmlns="http://www.w3.org/2000/svg" xmlns:xlink="http://www.w3.org/1999/xlink" x="0px" y="0px"
	 viewBox="0 0 279 168.7" style="enable-background:new 0 0 279 168.7;" xml:space="preserve">
<style type="text/css">
	.st0{fill:#FFCC05;}
	.st1{opacity:0.95;fill:#FFCC05;}
	.st2{opacity:0.9;fill:#FFCC05;}
	.st3{opacity:0.85;fill:#FFCC05;}
	.st4{opacity:0.8;fill:#FFCC05;}
	.st5{opacity:0.75;fill:#FFCC05;}
	.st6{opacity:0.7;fill:#FFCC05;}
	.st7{opacity:0.65;fill:#FFCC05;}
	.st8{opacity:0.6;fill:#FFCC05;}
	.st9{opacity:0.55;fill:#FFCC05;}
	.st10{opacity:0.5;fill:#FFCC05;}
	.st11{opacity:0.45;fill:#FFCC05;}
	.st12{opacity:0.4;fill:#FFCC05;}
	.st13{opacity:0.35;fill:#FFCC05;}
	.st14{opacity:0.25;fill:#FFCC05;}
	.st15{opacity:0.15;fill:#FFCC05;}
</style>
<path class="st0" d="M0,50c12.3,41.3,92.3,24,92.3,24C134,67,187,30.4,187,30.4C242.6-6.3,279,3,279,3V0.5c-47.3-5-93,27.5-93,27.5
	c-54.7,37.3-92.7,43-92.7,43c-80.7,16-91-21.7-91-21.7L0,50z"/>
<path class="st1" d="M0,55.5c12.3,41.3,92.3,24,92.3,24c41.7-7,94.7-43.7,94.7-43.7c55.7-36.7,92-27.3,92-27.3V6
	c-47.3-5-93,27.5-93,27.5c-54.7,37.3-92.7,43-92.7,43c-80.7,16-91-21.7-91-21.7L0,55.5z"/>
<path class="st2" d="M0,61.7c12.3,41.3,92.3,24,92.3,24c41.7-7,94.7-43.7,94.7-43.7c55.7-36.7,92-27.3,92-27.3v-2.5
	c-47.3-5-93,27.5-93,27.5c-54.7,37.3-92.7,43-92.7,43c-80.7,16-91-21.7-91-21.7L0,61.7z"/>
<path class="st3" d="M0,67.5c12.3,41.3,92.3,24,92.3,24c41.7-7,94.7-43.7,94.7-43.7c55.7-36.7,92-27.3,92-27.3V18
	c-47.3-5-93,27.5-93,27.5c-54.7,37.3-92.7,43-92.7,43c-80.7,16-91-21.7-91-21.7L0,67.5z"/>
<path class="st4" d="M0,74.1c12.3,41.3,92.3,24,92.3,24c41.7-7,94.7-43.7,94.7-43.7c55.7-36.7,92-27.3,92-27.3v-2.5
	c-47.3-5-93,27.5-93,27.5c-54.7,37.3-92.7,43-92.7,43c-80.7,16-91-21.7-91-21.7L0,74.1z"/>
<path class="st5" d="M0,79.6c12.3,41.3,92.3,24,92.3,24c41.7-7,94.7-43.7,94.7-43.7c55.7-36.7,92-27.3,92-27.3v-2.5
	c-47.3-5-93,27.5-93,27.5c-54.7,37.3-92.7,43-92.7,43c-80.7,16-91-21.7-91-21.7L0,79.6z"/>
<path class="st6" d="M0,85.8c12.3,41.3,92.3,24,92.3,24c41.7-7,94.7-43.7,94.7-43.7c55.7-36.7,92-27.3,92-27.3v-2.5
	c-47.3-5-93,27.5-93,27.5c-54.7,37.3-92.7,43-92.7,43c-80.7,16-91-21.7-91-21.7L0,85.8z"/>
<path class="st7" d="M0,91.6c12.3,41.3,92.3,24,92.3,24c41.7-7,94.7-43.7,94.7-43.7c55.7-36.7,92-27.3,92-27.3v-2.5
	c-47.3-5-93,27.5-93,27.5c-54.7,37.3-92.7,43-92.7,43c-80.7,16-91-21.7-91-21.7L0,91.6z"/>
<path class="st8" d="M0,97.6c12.3,41.3,92.3,24,92.3,24c41.7-7,94.7-43.7,94.7-43.7c55.7-36.7,92-27.3,92-27.3v-2.5
	c-47.3-5-93,27.5-93,27.5c-54.7,37.3-92.7,43-92.7,43c-80.7,16-91-21.7-91-21.7L0,97.6z"/>
<path class="st9" d="M0,103.8c12.3,41.3,92.3,24,92.3,24c41.7-7,94.7-43.7,94.7-43.7c55.7-36.7,92-27.3,92-27.3v-2.5
	c-47.3-5-93,27.5-93,27.5c-54.7,37.3-92.7,43-92.7,43c-80.7,16-91-21.7-91-21.7L0,103.8z"/>
<path class="st10" d="M0,109.6c12.3,41.3,92.3,24,92.3,24c41.7-7,94.7-43.7,94.7-43.7c55.7-36.7,92-27.3,92-27.3v-2.5
	c-47.3-5-93,27.5-93,27.5c-54.7,37.3-92.7,43-92.7,43c-80.7,16-91-21.7-91-21.7L0,109.6z"/>
<path class="st11" d="M0,115.8c12.3,41.3,92.3,24,92.3,24c41.7-7,94.7-43.7,94.7-43.7c55.7-36.7,92-27.3,92-27.3v-2.5
	c-47.3-5-93,27.5-93,27.5c-54.7,37.3-92.7,43-92.7,43c-80.7,16-91-21.7-91-21.7L0,115.8z"/>
<path class="st12" d="M0,122.3c12.3,41.3,92.3,24,92.3,24c41.7-7,94.7-43.7,94.7-43.7c55.7-36.7,92-27.3,92-27.3v-2.5
	c-47.3-5-93,27.5-93,27.5c-54.7,37.3-92.7,43-92.7,43c-80.7,16-91-21.7-91-21.7L0,122.3z"/>
<path class="st13" d="M0,128.8c12.3,41.3,92.3,24,92.3,24c41.7-7,94.7-43.7,94.7-43.7c55.7-36.7,92-27.3,92-27.3v-2.5
	c-47.3-5-93,27.5-93,27.5c-54.7,37.3-92.7,43-92.7,43c-80.7,16-91-21.7-91-21.7L0,128.8z"/>
<path class="st14" d="M0,134.8c12.3,41.3,92.3,24,92.3,24c41.7-7,94.7-43.7,94.7-43.7c55.7-36.7,92-27.3,92-27.3v-2.5
	c-47.3-5-93,27.5-93,27.5c-54.7,37.3-92.7,43-92.7,43c-80.7,16-91-21.7-91-21.7L0,134.8z"/>
<path class="st15" d="M0,141.1c12.3,41.3,92.3,24,92.3,24c41.7-7,94.7-43.7,94.7-43.7c55.7-36.7,92-27.3,92-27.3v-2.5
	c-47.3-5-93,27.5-93,27.5c-54.7,37.3-92.7,43-92.7,43c-80.7,16-91-21.7-91-21.7L0,141.1z"/>
</svg>
