<svg id="Layer_1" xmlns="http://www.w3.org/2000/svg" viewBox="0 0 279 168.7"><style>.st0{fill:#ffcc05}.st1{opacity:.95}.st1,.st2,.st3{fill:#ffcc05}.st2{opacity:.9}.st3{opacity:.85}.st4{opacity:.8}.st4,.st5,.st6{fill:#ffcc05}.st5{opacity:.75}.st6{opacity:.7}.st7{opacity:.65}.st7,.st8,.st9{fill:#ffcc05}.st8{opacity:.6}.st9{opacity:.55}.st10{opacity:.5}.st10,.st11,.st12{fill:#ffcc05}.st11{opacity:.45}.st12{opacity:.4}.st13{opacity:.35}.st13,.st14,.st15{fill:#ffcc05}.st14{opacity:.25}.st15{opacity:.15}</style><path class="st0" d="M0 50c12.3 41.3 92.3 24 92.3 24C134 67 187 30.4 187 30.4 242.6-6.3 279 3 279 3V.5c-47.3-5-93 27.5-93 27.5-54.7 37.3-92.7 43-92.7 43-80.7 16-91-21.7-91-21.7L0 50z"/><path class="st1" d="M0 55.5c12.3 41.3 92.3 24 92.3 24 41.7-7 94.7-43.7 94.7-43.7C242.7-.9 279 8.5 279 8.5V6c-47.3-5-93 27.5-93 27.5-54.7 37.3-92.7 43-92.7 43-80.7 16-91-21.7-91-21.7l-2.3.7z"/><path class="st2" d="M0 61.7c12.3 41.3 92.3 24 92.3 24C134 78.7 187 42 187 42c55.7-36.7 92-27.3 92-27.3v-2.5c-47.3-5-93 27.5-93 27.5-54.7 37.3-92.7 43-92.7 43-80.7 16-91-21.7-91-21.7l-2.3.7z"/><path class="st3" d="M0 67.5c12.3 41.3 92.3 24 92.3 24 41.7-7 94.7-43.7 94.7-43.7 55.7-36.7 92-27.3 92-27.3V18c-47.3-5-93 27.5-93 27.5-54.7 37.3-92.7 43-92.7 43-80.7 16-91-21.7-91-21.7l-2.3.7z"/><path class="st4" d="M0 74.1c12.3 41.3 92.3 24 92.3 24 41.7-7 94.7-43.7 94.7-43.7 55.7-36.7 92-27.3 92-27.3v-2.5c-47.3-5-93 27.5-93 27.5-54.7 37.3-92.7 43-92.7 43-80.7 16-91-21.7-91-21.7l-2.3.7z"/><path class="st5" d="M0 79.6c12.3 41.3 92.3 24 92.3 24 41.7-7 94.7-43.7 94.7-43.7 55.7-36.7 92-27.3 92-27.3v-2.5c-47.3-5-93 27.5-93 27.5-54.7 37.3-92.7 43-92.7 43-80.7 16-91-21.7-91-21.7l-2.3.7z"/><path class="st6" d="M0 85.8c12.3 41.3 92.3 24 92.3 24 41.7-7 94.7-43.7 94.7-43.7 55.7-36.7 92-27.3 92-27.3v-2.5c-47.3-5-93 27.5-93 27.5-54.7 37.3-92.7 43-92.7 43-80.7 16-91-21.7-91-21.7l-2.3.7z"/><path class="st7" d="M0 91.6c12.3 41.3 92.3 24 92.3 24 41.7-7 94.7-43.7 94.7-43.7 55.7-36.7 92-27.3 92-27.3v-2.5c-47.3-5-93 27.5-93 27.5-54.7 37.3-92.7 43-92.7 43-80.7 16-91-21.7-91-21.7l-2.3.7z"/><path class="st8" d="M0 97.6c12.3 41.3 92.3 24 92.3 24 41.7-7 94.7-43.7 94.7-43.7 55.7-36.7 92-27.3 92-27.3v-2.5c-47.3-5-93 27.5-93 27.5-54.7 37.3-92.7 43-92.7 43-80.7 16-91-21.7-91-21.7l-2.3.7z"/><path class="st9" d="M0 103.8c12.3 41.3 92.3 24 92.3 24 41.7-7 94.7-43.7 94.7-43.7 55.7-36.7 92-27.3 92-27.3v-2.5c-47.3-5-93 27.5-93 27.5-54.7 37.3-92.7 43-92.7 43-80.7 16-91-21.7-91-21.7l-2.3.7z"/><path class="st10" d="M0 109.6c12.3 41.3 92.3 24 92.3 24 41.7-7 94.7-43.7 94.7-43.7 55.7-36.7 92-27.3 92-27.3v-2.5c-47.3-5-93 27.5-93 27.5-54.7 37.3-92.7 43-92.7 43-80.7 16-91-21.7-91-21.7l-2.3.7z"/><path class="st11" d="M0 115.8c12.3 41.3 92.3 24 92.3 24 41.7-7 94.7-43.7 94.7-43.7 55.7-36.7 92-27.3 92-27.3v-2.5c-47.3-5-93 27.5-93 27.5-54.7 37.3-92.7 43-92.7 43-80.7 16-91-21.7-91-21.7l-2.3.7z"/><path class="st12" d="M0 122.3c12.3 41.3 92.3 24 92.3 24 41.7-7 94.7-43.7 94.7-43.7 55.7-36.7 92-27.3 92-27.3v-2.5c-47.3-5-93 27.5-93 27.5-54.7 37.3-92.7 43-92.7 43-80.7 16-91-21.7-91-21.7l-2.3.7z"/><path class="st13" d="M0 128.8c12.3 41.3 92.3 24 92.3 24 41.7-7 94.7-43.7 94.7-43.7 55.7-36.7 92-27.3 92-27.3v-2.5c-47.3-5-93 27.5-93 27.5-54.7 37.3-92.7 43-92.7 43-80.7 16-91-21.7-91-21.7l-2.3.7z"/><path class="st14" d="M0 134.8c12.3 41.3 92.3 24 92.3 24 41.7-7 94.7-43.7 94.7-43.7 55.7-36.7 92-27.3 92-27.3v-2.5c-47.3-5-93 27.5-93 27.5-54.7 37.3-92.7 43-92.7 43-80.7 16-91-21.7-91-21.7l-2.3.7z"/><path class="st15" d="M0 141.1c12.3 41.3 92.3 24 92.3 24 41.7-7 94.7-43.7 94.7-43.7 55.7-36.7 92-27.3 92-27.3v-2.5c-47.3-5-93 27.5-93 27.5-54.7 37.3-92.7 43-92.7 43-80.7 16-91-21.7-91-21.7l-2.3.7z"/></svg>