<svg id="Layer_1" xmlns="http://www.w3.org/2000/svg" viewBox="0 0 403.2 43"><style>.st0{fill:url(#SVGID_1_)}.st1,.st2{fill:#fff}.st2{stroke:#fff;stroke-width:2;stroke-miterlimit:10}</style><linearGradient id="SVGID_1_" gradientUnits="userSpaceOnUse" y1="21.5" x2="45.206" y2="21.5"><stop offset="0" stop-color="#edbc46"/><stop offset=".12" stop-color="#f8da76"/><stop offset=".21" stop-color="#ffed95"/><stop offset=".446" stop-color="#ffcc07"/><stop offset=".731" stop-color="#f6ba21"/><stop offset="1" stop-color="#edbc46"/></linearGradient><path class="st0" d="M31.3 26.5L27 25.3l3.3 8.3-7.7-5.1-7.7 5.1 3.3-8.3L11 20h8.9l2.7-8.4 2.7 8.4h13.6l6.3-3.6H27.9L22.6 0l-5.3 16.4H0l13.9 10.1L7.3 43l15.3-10.2L37.9 43l-6.6-16.5z"/><path class="st1" d="M82.9 32.7c-2.2-2.2-3.4-4.9-3.4-8.1 0-3.2 1.1-5.9 3.4-8.1 2.2-2.2 5-3.3 8.3-3.3 3.3 0 6 1.1 8.3 3.3 2.3 2.2 3.4 4.9 3.4 8.1 0 3.2-1.1 5.9-3.4 8.1-2.2 2.2-5 3.3-8.3 3.3-3.3 0-6.1-1.1-8.3-3.3zm2.7-2.5c1.5 1.5 3.4 2.2 5.5 2.2 2.2 0 4-.8 5.5-2.2 1.5-1.5 2.2-3.4 2.2-5.6 0-2.2-.8-4.1-2.2-5.6-1.5-1.5-3.3-2.3-5.5-2.3s-4 .8-5.5 2.3c-1.5 1.5-2.2 3.4-2.2 5.6 0 2.3.7 4.1 2.2 5.6zm21.7 5V12.3l15 14.7V13.2h4V36l-15-14.7v13.9h-4zm30.4.8V17.6h-6V14h15.9v3.6h-6V36h-3.9zm15.3 0V14h8.6c2 0 3.7.7 5.1 2 1.4 1.3 2.1 3 2.1 5 0 2.9-1.6 5.3-4 6.3l5.3 8.8h-4.5l-4.7-7.8H157V36h-4zm4-11.4h4.2c2.2 0 3.6-1.5 3.6-3.6 0-2-1.4-3.5-3.3-3.5H157v7.1zM201.6 36V17.6h-6V14h15.9v3.6h-6V36h-3.9zm15.4 0V14h14v3.6h-10.1v5.2h9.5v3.6h-9.5v6.1h10.3V36H217zm-31.9-7.7h-4.5l2.2-4.9-1.9-4.3-8 16.9h4.2l2-4.2h7.6zm-1.2-15.4l-1.9 3.9 1.4 3.4 1.3 2.9 2.4 5.2h-.1l1.6 3.5 1.9 4.2h4.2zM75.8 29.5zm-1.4 1.2c-1.6 1.1-3.4 1.7-5.4 1.7-2.2 0-4.1-.7-5.6-2.2-1.5-1.5-2.2-3.4-2.2-5.6s.7-4.1 2.2-5.6 3.4-2.2 5.6-2.2c2.1 0 3.9.6 5.5 1.8l1.3-3c-1.9-1.5-4.2-2.3-6.9-2.3-3.3 0-6 1.1-8.3 3.3-2.2 2.2-3.4 4.9-3.4 8.2s1.1 6 3.4 8.2c2.3 2.2 5.1 3.2 8.3 3.2 2.7 0 5-.8 6.8-2.3l-1.3-3.2z"/><path class="st2" d="M275.8 35.6v-22h8.6c2 0 3.7.7 5.1 2 1.4 1.3 2.1 3 2.1 5 0 2.9-1.6 5.3-4 6.3l5.3 8.8h-4.5l-4.7-7.8h-4v7.8h-3.9zm4-11.3h4.2c2.2 0 3.6-1.5 3.6-3.6 0-2-1.4-3.5-3.3-3.5h-4.5v7.1zm21.9 11.3V17.2h-6v-3.6h15.9v3.6h-6v18.5h-3.9zm15.5 0v-22h4v22h-4zm34.5 0V17.2h-6v-3.6h15.9v3.6h-6v18.5h-3.9zM259.8 21l6.6 14.6h4l-10.9-23.1-1.7 3.6zm1.2 7h-4.8l2.4-5.3-1.9-4.2-8.1 17.1h4.1l2-4.2h7.9zm113.6 0h-4.5l2.3-5-1.9-4.2-8 16.8h4.2l2-4.2h7.5zm-1.2-15.5l-1.8 4L373 20l.4.8 3.3 7.2h-.1l1.5 3.4h.1l1.9 4.2h4.2zm-36.7 10.2c-.2-.1-.5-.2-1-.4l-1-.5c-.3-.2-1.3-.6-1.6-.9-.5-.5-1.2-1.1-1.1-1.8 0-1.4 1.3-2.3 3.5-2.3 1.4 0 2.7.3 3.8.9l1.4-3.1c-1.5-1-3.2-1.5-5.3-1.5-2.2 0-3.9.5-5.3 1.6-1.4 1-2.1 2.5-2.1 4.3 0 3.2 2.1 4.9 5.9 6.5 1.9.8 3.2 1.5 3.9 2 .7.5 1 1.2 1 2.2 0 1.5-1.6 2.7-4.2 2.7-2.1 0-4.1-.6-5.7-1.8l-1.4 3.1c2.1 1.5 4.6 2.2 7.4 2.2 2.5 0 4.5-.6 5.9-1.8 1.4-1.2 2.1-2.7 2.1-4.5 0-1.7-.5-3-1.4-4.1-1.2-.9-2.7-1.8-4.8-2.8zm59.5 0c-.2-.1-.5-.2-1-.4l-1-.5c-.3-.2-1.3-.6-1.6-.9-.5-.5-1.2-1.1-1.1-1.8 0-1.4 1.3-2.3 3.5-2.3 1.4 0 2.7.3 3.8.9l1.4-3.1c-1.5-1-3.3-1.5-5.3-1.5-2.2 0-3.9.5-5.3 1.6-1.4 1-2.1 2.5-2.1 4.3 0 3.2 2.1 4.9 5.9 6.5 1.9.8 3.2 1.5 3.9 2 .7.5 1 1.2 1 2.2 0 1.5-1.6 2.7-4.2 2.7-2.2 0-4.3-.7-6-2l-1.2 2.5v.7c2.1 1.5 4.6 2.2 7.4 2.2 2.5 0 4.5-.6 5.9-1.8 1.4-1.2 2.1-2.7 2.1-4.5 0-1.7-.5-3-1.4-4.1s-2.6-1.7-4.7-2.7z"/></svg>