<svg id="Layer_1" xmlns="http://www.w3.org/2000/svg" viewBox="0 0 100 13.1"><style>.st0{fill:#fff}.st1{fill:url(#SVGID_1_)}</style><path class="st0" d="M65.2 11.1V6h2.3c.5 0 .9.2 1.3.5s.5.8.5 1.3c0 .7-.3 1.2-.9 1.5l1.3 1.9h-1.6l-1-1.6h-.5v1.6h-1.4zm1.3-2.7h.8c.4 0 .6-.2.6-.6 0-.3-.2-.5-.5-.5h-.9v1.1zm5.7 2.7V7.2h-1.5V6h4.4v1.2h-1.5v3.9zm14.3 0V7.2h-1.6V6h4.5v1.2h-1.5v3.9zM76.7 6h1.4v5.1h-1.4zM61.1 7.6l1.6 3.5H64l-2.8-5.5-.5 1zm.3 1.8h-.8l.5-.9-.7-1.4-2 4h1.4l.4-.7h1.7zm30.9-1.8l1.5 3.5h1.5l-2.9-5.5-.5 1.1zm.3 1.8h-.8l.4-.8-.6-1.4-2 3.9H91l.4-.7h1.7zm-9.1-.8c-.2-.2-.5-.4-1-.6-.1 0-.2-.1-.3-.1l-.4-.1c-.1 0-.2-.1-.3-.1-.2-.1-.3-.2-.3-.3 0-.2.2-.3.7-.3.4 0 .7 0 .9.1l.5-1.1c-.4-.2-.9-.3-1.5-.3-.5 0-1 .1-1.4.4-.4.4-.6.8-.6 1.2 0 .7.4 1.2 1.1 1.4.1.1.4.1.7.2.3.1.5.2.6.2.1.1.2.1.2.2 0 .3-.3.4-.8.4s-.9-.1-1.3-.2l-.5 1.1c.5.3 1.1.4 1.8.4 1.4 0 2.1-.6 2.1-1.6.1-.3 0-.6-.2-.9m-65 1.4c-.4.3-.8.4-1.3.4s-.9-.2-1.3-.5c-.3-.3-.5-.8-.5-1.3s.2-1 .5-1.3c.3-.3.8-.5 1.3-.5s.9.1 1.3.4l.3-.7c-.4-.4-1-.5-1.6-.5-.8 0-1.4.3-1.9.8s-.8 1.1-.8 1.9c0 .8.3 1.4.8 1.9s1.2.8 1.9.8c.6 0 1.2-.2 1.6-.5v-.1l-.3-.8zm2.2.5c-.5-.5-.8-1.1-.8-1.9 0-.8.3-1.4.8-1.9s1.2-.8 1.9-.8c.8 0 1.4.3 1.9.8s.8 1.1.8 1.9c0 .8-.3 1.4-.8 1.9s-1.2.8-1.9.8c-.7-.1-1.4-.3-1.9-.8m.6-.6c.3.3.8.5 1.3.5s.9-.2 1.3-.5c.3-.4.5-.8.5-1.3s-.2-.9-.5-1.3-.8-.5-1.3-.5-.9.2-1.3.5c-.3.4-.5.8-.5 1.3s.2.9.5 1.3m5.4 1.2V5.8l3.5 3.4V6h.9v5.3l-3.5-3.4v3.2zm7.1 0V6.8h-1.3V6h3.7v.8h-1.4v4.3zm3.7 0V6h2c.5 0 .9.2 1.2.5.3.3.5.7.5 1.2 0 .7-.4 1.2-.9 1.5l1.2 2h-1l-1.1-1.8h-.9v1.8h-1zm1-2.6h1c.5 0 .8-.3.8-.8s-.3-.8-.8-.8h-1.1v1.6zm6.8.8h-1.1l.5-1.2-.4-.9-1.9 3.9h1l.4-1h1.8zm-.4-3.5l-.4.8.4.9 1.6 3.6h1zm4.2 5.3V6.8h-1.4V6h3.7v.8h-1.3v4.3zm3.7 0V6h3.3v.8h-2.4v1.3h2.2v.8h-2.2v1.4h2.4v.8zm45.9-3c-.1 0-.2-.1-.3-.1l-.4-.1c-.1 0-.2-.1-.3-.1-.2-.1-.3-.2-.3-.3 0-.2.2-.3.7-.3.3 0 .7 0 .9.1l.5-1.1c-.4-.2-.9-.3-1.5-.3-.5 0-1 .1-1.4.4-.4.3-.6.7-.6 1.1 0 .7.4 1.2 1.1 1.4.1.1.4.1.7.2.3.1.5.2.6.2.1.1.2.1.2.2 0 .2-.3.4-.8.4s-.9-.1-1.3-.3l-.5 1.3c.5.3 1.1.4 1.8.4 1.4 0 2.1-.6 2.1-1.6 0-.4-.1-.7-.3-.9s-.4-.5-.9-.6"/><linearGradient id="SVGID_1_" gradientUnits="userSpaceOnUse" x1="-541.398" y1="426.728" x2="-541.289" y2="426.728" gradientTransform="matrix(126.5264 0 0 -126.5264 68501.125 53998.973)"><stop offset="0" stop-color="#ffcc05"/><stop offset="1" stop-color="#d88a28"/></linearGradient><path class="st1" d="M6.9 0L5.3 4.9H0l4.2 3.2-2 5L6.9 10l4.7 3.1-2-5-1.4-.4 1 2.6-2.3-1.6-2.4 1.6 1.1-2.6-2.2-1.8h2.7l.8-2.5.8 2.6h4.2l1.9-1.1H8.5z"/></svg>