<?xml version="1.0" encoding="utf-8"?>
<!-- Generator: Adobe Illustrator 21.1.0, SVG Export Plug-In . SVG Version: 6.00 Build 0)  -->
<svg version="1.1" id="Layer_1" xmlns="http://www.w3.org/2000/svg" xmlns:xlink="http://www.w3.org/1999/xlink" x="0px" y="0px"
	 viewBox="0 0 403.2 43" style="enable-background:new 0 0 403.2 43;" xml:space="preserve">
<style type="text/css">
	.st0{fill:url(#SVGID_1_);}
	.st1{fill:#FFFFFF;}
	.st2{fill:#FFFFFF;stroke:#FFFFFF;stroke-width:2;stroke-miterlimit:10;}
</style>
<g>
	<linearGradient id="SVGID_1_" gradientUnits="userSpaceOnUse" x1="0" y1="21.5" x2="45.2064" y2="21.5">
		<stop  offset="0" style="stop-color:#EDBC46"/>
		<stop  offset="0.1204" style="stop-color:#F8DA76"/>
		<stop  offset="0.2097" style="stop-color:#FFED95"/>
		<stop  offset="0.4462" style="stop-color:#FFCC07"/>
		<stop  offset="0.7312" style="stop-color:#F6BA21"/>
		<stop  offset="1" style="stop-color:#EDBC46"/>
	</linearGradient>
	<polygon class="st0" points="31.3,26.5 27,25.3 30.3,33.6 22.6,28.5 14.9,33.6 18.2,25.3 11,20 19.9,20 22.6,11.6 25.3,20 34.2,20 
		34.2,20 38.9,20 45.2,16.4 27.9,16.4 22.6,0 17.3,16.4 0,16.4 13.9,26.5 7.3,43 22.6,32.8 37.9,43 31.3,26.5 	"/>
	<path class="st1" d="M82.9,32.7c-2.2-2.2-3.4-4.9-3.4-8.1c0-3.2,1.1-5.9,3.4-8.1c2.2-2.2,5-3.3,8.3-3.3c3.3,0,6,1.1,8.3,3.3
		c2.3,2.2,3.4,4.9,3.4,8.1c0,3.2-1.1,5.9-3.4,8.1c-2.2,2.2-5,3.3-8.3,3.3C87.9,36,85.1,34.9,82.9,32.7z M85.6,30.2
		c1.5,1.5,3.4,2.2,5.5,2.2c2.2,0,4-0.8,5.5-2.2c1.5-1.5,2.2-3.4,2.2-5.6c0-2.2-0.8-4.1-2.2-5.6c-1.5-1.5-3.3-2.3-5.5-2.3
		c-2.2,0-4,0.8-5.5,2.3c-1.5,1.5-2.2,3.4-2.2,5.6C83.4,26.9,84.1,28.7,85.6,30.2z"/>
	<path class="st1" d="M107.3,35.2V12.3l15,14.7V13.2h4V36l-15-14.7v13.9H107.3z"/>
	<path class="st1" d="M137.7,36V17.6h-6V14h15.9v3.6h-6V36H137.7z"/>
	<path class="st1" d="M153,36V14h8.6c2,0,3.7,0.7,5.1,2c1.4,1.3,2.1,3,2.1,5c0,2.9-1.6,5.3-4,6.3l5.3,8.8h-4.5l-4.7-7.8h-0.1H157V36
		H153z M157,24.6h4.2c2.2,0,3.6-1.5,3.6-3.6c0-2-1.4-3.5-3.3-3.5H157V24.6z"/>
	<path class="st1" d="M201.6,36V17.6h-6V14h15.9v3.6h-6V36H201.6z"/>
	<path class="st1" d="M217,36V14h14v3.6h-10.1v5.2h9.5v3.6h-9.5v6.1h10.3V36H217z"/>
	<g>
		<polygon class="st1" points="185.1,28.3 180.6,28.3 182.8,23.4 180.9,19.1 172.9,36 177.1,36 179.1,31.8 186.7,31.8 		"/>
		<polygon class="st1" points="183.9,12.9 182,16.8 183.4,20.2 184.7,23.1 187.1,28.3 187,28.3 188.6,31.8 188.6,31.8 190.5,36 
			194.7,36 		"/>
	</g>
	<g>
		<polygon class="st1" points="75.8,29.5 75.8,29.5 75.8,29.5 		"/>
		<path class="st1" d="M74.4,30.7c-1.6,1.1-3.4,1.7-5.4,1.7c-2.2,0-4.1-0.7-5.6-2.2c-1.5-1.5-2.2-3.4-2.2-5.6s0.7-4.1,2.2-5.6
			s3.4-2.2,5.6-2.2c2.1,0,3.9,0.6,5.5,1.8l1.3-3v0c-1.9-1.5-4.2-2.3-6.9-2.3c-3.3,0-6,1.1-8.3,3.3c-2.2,2.2-3.4,4.9-3.4,8.2
			s1.1,6,3.4,8.2c2.3,2.2,5.1,3.2,8.3,3.2c2.7,0,5-0.8,6.8-2.3L74.4,30.7z"/>
	</g>
	<g>
		<path class="st2" d="M275.8,35.6v-22h8.6c2,0,3.7,0.7,5.1,2c1.4,1.3,2.1,3,2.1,5c0,2.9-1.6,5.3-4,6.3l5.3,8.8h-4.5l-4.7-7.8h-0.1
			h-3.9v7.8H275.8z M279.8,24.3h4.2c2.2,0,3.6-1.5,3.6-3.6c0-2-1.4-3.5-3.3-3.5h-4.5V24.3z"/>
		<path class="st2" d="M301.7,35.6V17.2h-6v-3.6h15.9v3.6h-6v18.5H301.7z"/>
		<path class="st2" d="M317.2,35.6v-22h4v22H317.2z"/>
		<path class="st2" d="M351.7,35.6V17.2h-6v-3.6h15.9v3.6h-6v18.5H351.7z"/>
		<g>
			<polygon class="st2" points="259.8,21 266.4,35.6 270.4,35.6 259.5,12.5 257.8,16.1 			"/>
			<polygon class="st2" points="261,28 256.2,28 258.6,22.7 256.7,18.5 248.6,35.6 252.7,35.6 254.7,31.4 262.6,31.4 			"/>
		</g>
		<g>
			<polygon class="st2" points="374.6,28 370.1,28 372.4,23 370.5,18.8 362.5,35.6 366.7,35.6 368.7,31.4 376.2,31.4 			"/>
			<polygon class="st2" points="373.4,12.5 371.6,16.5 373,20 373.4,20.8 373.4,20.8 376.7,28 376.6,28 378.1,31.4 378.2,31.4 
				380.1,35.6 384.3,35.6 			"/>
		</g>
		<g>
			<path class="st2" d="M336.7,22.7c-0.2-0.1-0.5-0.2-1-0.4l-1-0.5c-0.3-0.2-1.3-0.6-1.6-0.9c-0.5-0.5-1.2-1.1-1.1-1.8
				c0-1.4,1.3-2.3,3.5-2.3c1.4,0,2.7,0.3,3.8,0.9l1.4-3.1c-1.5-1-3.2-1.5-5.3-1.5c-2.2,0-3.9,0.5-5.3,1.6c-1.4,1-2.1,2.5-2.1,4.3
				c0,3.2,2.1,4.9,5.9,6.5c1.9,0.8,3.2,1.5,3.9,2c0.7,0.5,1,1.2,1,2.2c0,1.5-1.6,2.7-4.2,2.7c-2.1,0-4.1-0.6-5.7-1.8l-1.4,3.1
				c2.1,1.5,4.6,2.2,7.4,2.2c2.5,0,4.5-0.6,5.9-1.8c1.4-1.2,2.1-2.7,2.1-4.5c0-1.7-0.5-3-1.4-4.1C340.3,24.6,338.8,23.7,336.7,22.7z
				"/>
		</g>
		<path class="st2" d="M396.2,22.7c-0.2-0.1-0.5-0.2-1-0.4l-1-0.5c-0.3-0.2-1.3-0.6-1.6-0.9c-0.5-0.5-1.2-1.1-1.1-1.8
			c0-1.4,1.3-2.3,3.5-2.3c1.4,0,2.7,0.3,3.8,0.9l1.4-3.1c-1.5-1-3.3-1.5-5.3-1.5c-2.2,0-3.9,0.5-5.3,1.6c-1.4,1-2.1,2.5-2.1,4.3
			c0,3.2,2.1,4.9,5.9,6.5c1.9,0.8,3.2,1.5,3.9,2c0.7,0.5,1,1.2,1,2.2c0,1.5-1.6,2.7-4.2,2.7c-2.2,0-4.3-0.7-6-2l-1.2,2.5v0.7
			c2.1,1.5,4.6,2.2,7.4,2.2c2.5,0,4.5-0.6,5.9-1.8c1.4-1.2,2.1-2.7,2.1-4.5c0-1.7-0.5-3-1.4-4.1S398.3,23.7,396.2,22.7z"/>
	</g>
</g>
</svg>
