<svg id="Layer_1" xmlns="http://www.w3.org/2000/svg" viewBox="0 0 100 100"><style>.st0{fill:url(#SVGID_1_)}.st1{fill:url(#SVGID_2_)}.st2{fill:url(#SVGID_3_)}</style><linearGradient id="SVGID_1_" gradientUnits="userSpaceOnUse" x1="-658.946" y1="555.625" x2="-602.191" y2="555.625" gradientTransform="rotate(-6.686 -4577.302 -5366.423)"><stop offset="0" stop-color="#fdc805"/><stop offset=".705" stop-color="#efae03"/><stop offset=".913" stop-color="#e29301"/></linearGradient><path class="st0" d="M9.3 16.1c5.2 6.9 10.4 14 15.5 20.9l-.2.2c-2.5 1.9-3.1 4.6-3.1 7.7.2 4.2 1.7 8.1 3.8 11.5 2.7 4.8 6.1 9 10.5 12.1 2.3 1.5 4.8 2.9 7.7 3.1 1.7.2 3.5-.2 5-1.3.2-.2.6-.4.8-.4 1.3 1.9 2.7 3.6 4 5.4 3.5 4.8 7.1 9.4 10.5 14.4.8 1.2.8 1.2-.2 2.1-2.5 1.9-5.2 3.3-8.2 4-2.5.4-4.8 0-7.1-.8-3.5-1.2-6.7-3.1-9.8-5.2-7.3-5-13.2-11.1-18.8-18-4-5.2-7.9-10.4-10.9-16.3-2.5-4.2-4.6-8.6-6.1-13.2C1.4 38.5.6 34.4 0 30.6c-.4-3.1.6-5.8 2.5-8.4 2-2.5 4.3-4.4 6.8-6.1z"/><linearGradient id="SVGID_2_" gradientUnits="userSpaceOnUse" x1="12.819" y1="69.54" x2="39.427" y2="69.54" gradientTransform="translate(0 -50.417)"><stop offset="0" stop-color="#fdc805"/><stop offset=".705" stop-color="#efae03"/><stop offset=".913" stop-color="#e29301"/></linearGradient><path class="st1" d="M21.6 4.2c.8-.2 1.3.2 1.9.4.4.4 1 .8 1.3 1.3C29 11.7 33.3 17.3 37.5 23c.8 1 1.2 1.9 1.7 2.7.4.8.4 1.7-.4 2.5-2.1 2.1-4.6 4-7.3 5.6-1 .6-1.9.4-2.7-.4-1-1-1.9-1.9-2.7-3.1-2.5-3.3-4.6-6.3-7.1-9.6-1.5-1.9-3.1-3.8-4.4-5.9-.6-.6-1-1.3-1.5-2.1-.4-1-.4-1.9.6-2.7.4-.4 1-1 1.5-1.3 1.3-1.2 2.9-2.1 4.2-3.3.6-.4 1.4-.8 2.2-1.2z"/><linearGradient id="SVGID_3_" gradientUnits="userSpaceOnUse" x1="52.692" y1="122.903" x2="79.04" y2="122.903" gradientTransform="translate(0 -50.417)"><stop offset="0" stop-color="#fdc805"/><stop offset=".705" stop-color="#efae03"/><stop offset=".913" stop-color="#e29301"/></linearGradient><path class="st2" d="M61.3 57.5c.8 0 1.5.2 2.1.8.4.4.8.8 1.2 1.3 4 5.6 8.4 11.1 12.5 16.7.6.8 1.2 1.7 1.5 2.5.6 1.2.4 2.1-.4 3.1l-1.3 1.3c-1.3 1-2.7 2.1-4 3.1-.4.4-1 .8-1.5 1-1 .4-1.9.2-2.9-.4-.4-.4-.8-.8-1.2-1.3C63 79.8 58.6 74 54.4 68.5c-.6-.8-1-1.9-1.5-2.7-.4-.8-.2-1.7.4-2.5l1-1c1.7-1.3 3.5-2.7 5.2-3.8.6-.6 1.2-.8 1.8-1z"/></svg>