<svg id="Layer_1" xmlns="http://www.w3.org/2000/svg" viewBox="0 0 100 100"><style>.st0{fill:url(#SVGID_1_)}</style><linearGradient id="SVGID_1_" gradientUnits="userSpaceOnUse" x1="-.171" y1="96.346" x2="65.516" y2="96.346" gradientTransform="translate(0 -46.346)"><stop offset="0" stop-color="#fdc805"/><stop offset=".705" stop-color="#efae03"/><stop offset=".913" stop-color="#e29301"/></linearGradient><path class="st0" d="M33.8.4c1.5.2 2.9.4 4.4.6 4.8.8 9.3 2.7 13.1 5.4 6 4.2 10 9.6 12.3 16.6 1.9 5.8 2.3 11.6.6 17.5-2.3 8.5-6.4 16.4-10.4 24.1C47.4 76.4 40.5 87.9 33 99.1c-.2.2-.2.4-.4.6l-.4-.4C23.5 86 15.2 72.7 8.1 58.4 5.2 52.8 2.7 46.8 1 40.7-.9 33.5-.1 26.6 2.8 20S10.3 8.3 16.5 4.8C20.7 2.3 25.4.9 30.4.6c.4 0 .8-.2 1.2-.2h2.2zm-1.1 49.9c9.4 0 17.2-7.7 17.2-17S41.9 16 32.7 16s-17 7.7-17 17c-.2 9.4 7.5 17.1 17 17.3z"/></svg>