<svg id="Layer_1" xmlns="http://www.w3.org/2000/svg" viewBox="0 0 47 47"><style>.st0{fill:#fff}</style><path class="st0" d="M32.5 0C24.5 0 18 6.5 18 14.5c0 3.7 1.4 7.1 3.7 9.7l-3.6 3.6c-1.2-.7-2.9-.6-3.9.5l-1.5 1.5-12 12c-1.3 1.3-.5 2.6.7 3.8 1.3 1.3 2.6 2 3.8.7l12.1-12.1 1.5-1.5c1.1-1.1 1.2-2.7.5-3.9l3.6-3.6c2.6 2.3 6 3.7 9.7 3.7 8 0 14.5-6.5 14.5-14.5S40.5 0 32.5 0zm0 25.9c-6.3 0-11.4-5.1-11.4-11.4S26.2 3.1 32.5 3.1s11.4 5.1 11.4 11.4-5.1 11.4-11.4 11.4z"/><path class="st0" d="M32.5 5.5c-2.4 0-4.7.9-6.4 2.6-.3.3-.3.8 0 1.1.2.2.4.2.6.2s.4-.1.6-.2C28.7 7.8 30.5 7 32.5 7s3.9.8 5.3 2.2c.3.3.8.3 1.1 0s.3-.8 0-1.1c-1.7-1.7-4-2.6-6.4-2.6z"/></svg>