<svg id="Layer_1" xmlns="http://www.w3.org/2000/svg" viewBox="0 0 161.8 166.7"><style>.st0{opacity:.1;fill:#fff}</style><path class="st0" d="M35.7 94.8l-4.9-1.4 3.8 9.5-8.8-5.8-8.8 5.8 3.8-9.5-8.3-6h10.2l3.1-9.7 3.1 9.7h15.5l7.2-4.1H31.9l-6.1-18.7-6.1 18.7H0l15.9 11.5-7.5 18.8L25.8 102l17.4 11.6-7.5-18.8zm51.6-15.5l-4.9-1.4 3.7 9.5-8.7-5.8-8.8 5.8 3.8-9.5-8.3-6h10.1l3.2-9.6 3.1 9.6H96l7.2-4.1H83.5l-6.1-18.7-6.1 18.7H51.6l15.8 11.5L60 98.1l17.4-11.6 17.4 11.6-7.5-18.8zm51.6 15.5l-5-1.4 3.8 9.5-8.7-5.8-8.8 5.8 3.8-9.5-8.3-6h10.1l3.2-9.7 3.1 9.7h15.5l7.1-4.1H135l-6-18.7-6.1 18.7h-19.7L119 94.8l-7.5 18.8L129 102l17.4 11.6-7.5-18.8z"/><path class="st0" d="M35.7 45.7l-4.9-1.4 3.8 9.6-8.8-5.9-8.8 5.9 3.8-9.6-8.3-6h10.2l3.1-9.6 3.1 9.6h15.5l7.2-4.1H31.9l-6.1-18.7-6.1 18.7H0l15.9 11.6-7.5 18.8 17.4-11.7 17.4 11.7-7.5-18.8zm51.6-15.5l-4.9-1.4 3.7 9.6-8.7-5.9-8.8 5.9 3.8-9.6-8.3-6h10.1l3.2-9.6 3.1 9.6H96l7.2-4.1H83.5L77.4 0l-6.1 18.7H51.6l15.8 11.6L60 49.1l17.4-11.7 17.4 11.7-7.5-18.8zm51.6 15.5l-5-1.4 3.8 9.6L129 48l-8.8 5.9 3.8-9.6-8.3-6h10.1l3.2-9.6 3.1 9.6h15.5l7.1-4.1H135l-6-18.7-6.1 18.7h-19.7L119 45.8l-7.5 18.8L129 52.9l17.4 11.7-7.5-18.8zM35.7 147.9l-4.9-1.4 3.8 9.5-8.8-5.8L17 156l3.8-9.5-8.3-6h10.2l3.1-9.6 3.1 9.6h15.5l7.2-4.1H31.9l-6.1-18.7-6.1 18.7H0l15.9 11.5-7.5 18.8 17.4-11.6 17.4 11.6-7.5-18.8zm51.6-15.5l-4.9-1.4 3.7 9.5-8.7-5.8-8.8 5.8 3.8-9.5-8.3-6h10.1l3.2-9.6 3.1 9.6H96l7.2-4.1H83.5l-6.1-18.7-6.1 18.7H51.6l15.8 11.5-7.4 18.8 17.4-11.6 17.4 11.6-7.5-18.8zm51.6 15.5l-5-1.4 3.8 9.5-8.7-5.8-8.8 5.8 3.8-9.5-8.3-6h10.1l3.2-9.6 3.1 9.6h15.5l7.1-4.1H135l-6-18.7-6.1 18.7h-19.7l15.8 11.5-7.5 18.8 17.5-11.6 17.4 11.6-7.5-18.8z"/></svg>